<?xml version="1.0" encoding="utf-8"?>
<!-- Generator: Adobe Illustrator 19.1.1, SVG Export Plug-In . SVG Version: 6.00 Build 0)  -->
<svg version="1.1" id="Layer_1" xmlns="http://www.w3.org/2000/svg" xmlns:xlink="http://www.w3.org/1999/xlink" x="0px" y="0px"
	 viewBox="0 0 474.9 474.7" style="enable-background:new 0 0 474.9 474.7;" xml:space="preserve">
<style type="text/css">
	.st0{fill:#ED1C24;}
	.st1{fill:#FFF200;}
	.st2{fill:#603913;}
	.st3{fill:#939598;}
	.st4{fill:#27AAE1;}
	.st5{fill:#FFFFFF;}
	.st6{fill:#00A651;}
	.st7{fill:#EE2A7B;}
	.st8{fill:#1C75BC;}
	.st9{fill:none;}
</style>
<path class="st4" d="M204.8,0c-15.1,0.1-32.6,2.5-52.4,7.8c-35.3,9.5-65,29-88.4,54.8c-17.7,13.8-37,46.4-51.4,86
	c-16.4,55-16.4,120.3-2.2,188.2c3.8,17.9,13.1,30.1,26.4,37.1c13.4,7,31.4,8.8,52.7,3.1c13.5-3.6,23-12.4,28.8-22.8s7.2-22,5.3-29.2
	c-4.3-16.2-19.1-25.2-32.3-21.7c-9,2.4-13.4,10.3-13.5,17c0,3.4,1,6.1,2.8,8c1.8,1.9,4.5,3.5,10,3.6l-0.3,18.7
	c-9.6-0.2-17.9-3.7-23.3-9.5s-7.9-13.5-7.8-20.9c0.1-14.9,10.1-30.2,27.3-34.8c24-6.4,48.5,9.8,55.2,34.8
	c3.6,13.5,0.8,29.1-7.1,43.2c-7.9,14.1-21.5,26.6-40.3,31.7c-4.2,1.1-8.3,2-12.3,2.6c98.9,90.1,248.9,110.8,349.3,9.7
	c18.2-18.3,31.3-40.7,38.6-65.1c0-0.1,0-0.1,0.1-0.2c9.9-40.3,4.9-84.3-17.5-123.2c-44.2-76.5-142.2-106.3-193.1-78.3
	c-57.3,23.1-71.7,56.9-76.6,81.9c-21.6,61,4.6,135.5,67.7,156.4c43.7,14.4,97.5-5.3,111.7-51.3c9.4-30.3-4.3-67-35.4-75.5
	c-9.5-2.6-20.6-1.6-29.4,2.7c-8.9,4.2-15.4,11.2-17.8,21.1c-1.3,5.4-0.5,11.9,1.9,16.8c2.5,4.9,6,8,11.3,9c1.9,0.3,4.3-0.1,6.3-0.8
	c-2-0.5-3.5-1.6-4.3-2.3c-1.4-1.3-3.2-3.7-3.7-6.6c-0.8-5,2.2-9.8,5-11.9c2.8-2.1,5.5-2.9,8.8-2.9c6.2,0,11.5,4,14,8.1
	c2.6,4.2,3.5,8.6,3,13.3v0c-1,8.3-6.4,14.8-12.5,18.2c-6.1,3.4-13.2,4.6-20,3.3c-11.4-2.1-20-9.8-24.6-18.9
	c-4.6-9.1-5.8-19.6-3.4-29.6c3.8-15.8,14.8-27.3,27.9-33.6c13.1-6.3,28.3-7.7,42.4-3.8c42.7,11.7,60.5,59.8,48.3,99.1
	c-17.6,57-82.5,80.9-135.4,63.5c-68.2-22.5-99.2-97.1-84.3-163.4c-18.9-16.4-34.3-39.5-40.5-62.6c-14.7-55,32.7-114.4,82.2-130.6
	c42.3-13.8,79.6,5.4,60.1,39.1C295.7,50.9,277.6-0.7,204.8,0L204.8,0z"/>
</svg>
