<?xml version="1.0" encoding="utf-8"?>
<!-- Generator: Adobe Illustrator 19.1.1, SVG Export Plug-In . SVG Version: 6.00 Build 0)  -->
<svg version="1.1" id="Layer_1" xmlns="http://www.w3.org/2000/svg" xmlns:xlink="http://www.w3.org/1999/xlink" x="0px" y="0px"
	 viewBox="0 0 362.8 479.7" style="enable-background:new 0 0 362.8 479.7;" xml:space="preserve">
<style type="text/css">
	.st0{fill:#ED1C24;}
	.st1{fill:#FFF200;}
	.st2{fill:#603913;}
	.st3{fill:#939598;}
	.st4{fill:#27AAE1;}
	.st5{fill:#FFFFFF;}
	.st6{fill:#00A651;}
	.st7{fill:#EE2A7B;}
	.st8{fill:#1C75BC;}
	.st9{fill:none;}
</style>
<path class="st8" d="M221.1,16.4C210.9,6.3,196.9,0,181.4,0c-31,0-56.1,25.1-56.1,56.1c0,24.1,15.2,44.6,36.5,52.6l0,59.4
	c-22.8-1-45.5-3.2-68.3-6.4l0,33.3c22.8-2.1,45.6-3.6,68.3-4.3l0,187.7c-51.1-6.3-96.7-37.1-130.2-83.1l12.7-10.9L0,217.5l3.9,101.7
	l15.5-13.3c27.5,68.4,79.1,117.4,140,127l23.1,46.7l23.3-47.1c59.9-10.5,110.6-59.2,137.7-126.7l15.5,13.3l3.9-101.7l-44.3,66.9
	l12.7,10.9c-33.6,46.1-79.2,76.8-130.3,83.1l0-187.9c22.9,0.4,45.7,1.8,68.3,4.5l0-33.3c-22.8,4-45.6,6.1-68.3,6.7v-59.7
	c21.4-7.9,36.6-28.5,36.6-52.6C237.5,40.6,231.2,26.6,221.1,16.4z M206.1,31.4c6.3,6.3,10.3,15.1,10.3,24.7c0,19.3-15.7,35-35,35
	c-19.3,0-34.9-15.6-34.9-34.9c0-19.3,15.7-35,35-35C191.1,21.1,199.8,25.1,206.1,31.4z"/>
</svg>
