<?xml version="1.0" encoding="utf-8"?>
<!-- Generator: Adobe Illustrator 19.1.1, SVG Export Plug-In . SVG Version: 6.00 Build 0)  -->
<svg version="1.1" id="Layer_1" xmlns="http://www.w3.org/2000/svg" xmlns:xlink="http://www.w3.org/1999/xlink" x="0px" y="0px"
	 viewBox="0 0 473.5 474.4" style="enable-background:new 0 0 473.5 474.4;" xml:space="preserve">
<style type="text/css">
	.st0{fill:#ED1C24;}
	.st1{fill:#FFF200;}
	.st2{fill:#603913;}
	.st3{fill:#939598;}
	.st4{fill:#27AAE1;}
	.st5{fill:#FFFFFF;}
	.st6{fill:#00A651;}
	.st7{fill:#EE2A7B;}
	.st8{fill:#1C75BC;}
	.st9{fill:none;}
</style>
<path class="st6" d="M220,0C163.3,0.4,109.1,29.1,68.4,72.3C15,129.2-13.5,210.3,7.4,282.4c16.3-8.8,32.8-16,48.9-21.4
	C50,137.9,145.6,50.1,256.3,50.7c4.3-13.4,10.3-27.3,18.1-41.9c-16.3-5.4-32.7-8.4-49-8.8C223.7,0,221.8,0,220,0L220,0z M251.2,69.4
	c-97.6,1.7-179.9,77.1-176.4,186.3c11-2.7,21.8-4.6,32.3-5.4c14.6-1.2,28.7-0.5,41.8,2.4l109.3-109.3c-5.3-12.1-8.5-25-9.3-38.7
	c-0.7-11.3,0.1-23,2.6-35.2C251.4,69.4,251.3,69.4,251.2,69.4L251.2,69.4z M312,130.1L295.2,147l30.5,30.4l16.8-16.8L312,130.1
	L312,130.1z M274.9,153.1L155.5,272.5l44.6,44.6l119.3-119.3L274.9,153.1z M464.8,199.2c-14.5,7.8-28.3,13.8-41.6,18.1
	c0.8,111-87.2,206.8-210.7,200.3c-5.4,16.1-12.6,32.5-21.3,48.7c72.2,20.9,153.3-7.6,210.1-61C458.4,351.6,489.8,274.5,464.8,199.2
	L464.8,199.2z M328.8,214.8L220.6,323c3.2,13.6,4.1,28.2,2.8,43.5c-0.9,10.6-2.8,21.5-5.5,32.6c109.6,3.7,185.1-79,186.6-176.9
	c-12.3,2.5-24.2,3.4-35.5,2.7C354.7,223.9,341.3,220.5,328.8,214.8L328.8,214.8z M149.4,292.7L0,442.1v32.3h28.7l151.2-151.2
	L149.4,292.7L149.4,292.7z"/>
</svg>
