<?xml version="1.0" encoding="utf-8"?>
<!-- Generator: Adobe Illustrator 18.0.0, SVG Export Plug-In . SVG Version: 6.00 Build 0)  -->
<!DOCTYPE svg PUBLIC "-//W3C//DTD SVG 1.1//EN" "http://www.w3.org/Graphics/SVG/1.1/DTD/svg11.dtd">
<svg version="1.1" id="Layer_1" xmlns="http://www.w3.org/2000/svg" xmlns:xlink="http://www.w3.org/1999/xlink" x="0px" y="0px"
	 viewBox="0 0 612 612" enable-background="new 0 0 612 612" xml:space="preserve">
<polygon fill="#FFFFFF" points="488.8,422.8 126.1,422.8 126.1,15.1 307.4,120.8 488.8,15.1 "/>
<g>
	<path fill="#C49A6C" d="M488.8,21l-96.2,178.2c-52.7,26.5-129.4,17.9-166.9-5.1l-99.5-179c13.3-8.5,26.6-13.3,39.5-14
		c17.6-0.9,36.1,4.9,57.7,24.4l14.3,13l15.1-12.2C271.6,11.1,288.5,3.6,302.8,3c14.3-0.6,28.5,4.3,46.4,21.9l16.5,16.3l15.9-17
		C398.1,6.8,410.1,1.3,422.9,1h0c0.9,0,1.7,0,2.6,0c4.6,0.1,9.4,0.9,14.5,2C454.1,5.9,470.5,13.5,488.8,21z"/>
	<path fill="#C49A6C" d="M454,555.3c-37.6,35.5-93.6,55-149.7,55.7c-56.1,0.7-111.3-17.3-148.1-52.1c-36.8-34.9-57.6-86-44.4-161.8
		c13.6-78.1,48.8-131.5,92.5-162.4v0c55.3,33.1,141.9,40.9,211.1,4.2c40.7,31.4,72.9,83.4,85.4,158
		C512.9,469.2,491.6,519.7,454,555.3z"/>
	<path fill="#603913" d="M415.4,238.9c-69.2,36.6-155.8,28.8-211.1-4.2v0l21.3-40.5c37.5,22.9,114.2,31.6,166.9,5.1L415.4,238.9z"/>
</g>
</svg>
