<?xml version="1.0" encoding="utf-8"?>
<!-- Generator: Adobe Illustrator 19.1.1, SVG Export Plug-In . SVG Version: 6.00 Build 0)  -->
<svg version="1.1" id="Layer_1" xmlns="http://www.w3.org/2000/svg" xmlns:xlink="http://www.w3.org/1999/xlink" x="0px" y="0px"
	 viewBox="0 0 486.2 480.7" style="enable-background:new 0 0 486.2 480.7;" xml:space="preserve">
<style type="text/css">
	.st0{fill:#ED1C24;}
	.st1{fill:#FFF200;}
	.st2{fill:#603913;}
	.st3{fill:#939598;}
	.st4{fill:#27AAE1;}
	.st5{fill:#FFFFFF;}
	.st6{fill:#00A651;}
	.st7{fill:#EE2A7B;}
	.st8{fill:#1C75BC;}
	.st9{fill:none;}
</style>
<path class="st4" d="M0,420.8l70.6-9.5l-11.2,69.4l56.1-41.5l322.7,11.1c13.2,11.7,28.9,20.7,47.9,25.8
	c-55.8-74.2-71.6-152.9-101.4-223.6l-35.9,35.9c25.2,53.1,42.5,105.8,71.3,142.5l-280.5-9.7l10.9-8.1l4.5-2.2v-71.3l227.1-199.8
	c-13.6-15.6-28.4-29.6-44.6-42.7L143.8,327.2H72.4L63.2,339L52.6,65.4c36.4,30,89.1,46.8,142.4,71.4l36.6-36.6
	C161.3,71,83.4,55.2,10,0c5,18.5,13,33.7,23.6,46.6l-0.5,0l12.3,315.4L0,420.8L0,420.8z M42.6,396.2l38.9-50.4h54.8v53.6l-0.1,0.6
	l-51,38.4l7.9-49L42.6,396.2L42.6,396.2z M210.1,148.1c13.3,8.2,25.8,17,37.7,26.6l25.9-30.7c-8.8-11.2-17.2-22.6-25.4-34.1
	L210.1,148.1L210.1,148.1z M299.9,48.1c56.8,35.7,100.7,75.4,136,134.7c20.7-59.1,37.3-118.5,44-178.8
	C419.1,12.7,359.2,28,299.9,48.1L299.9,48.1z M305.6,232.2c11,13.4,21.2,27.6,30.7,42.4l37.5-37.5c-14.6-8.7-28-18.6-40.4-29.3
	L305.6,232.2L305.6,232.2z"/>
</svg>
