<?xml version="1.0" encoding="utf-8"?>
<!-- Generator: Adobe Illustrator 19.1.1, SVG Export Plug-In . SVG Version: 6.00 Build 0)  -->
<svg version="1.1" id="Layer_1" xmlns="http://www.w3.org/2000/svg" xmlns:xlink="http://www.w3.org/1999/xlink" x="0px" y="0px"
	 viewBox="0 0 478.5 460.8" style="enable-background:new 0 0 478.5 460.8;" xml:space="preserve">
<style type="text/css">
	.st0{fill:#ED1C24;}
	.st1{fill:#FFF200;}
	.st2{fill:#603913;}
	.st3{fill:#939598;}
	.st4{fill:#27AAE1;}
	.st5{fill:#FFFFFF;}
	.st6{fill:#00A651;}
	.st7{fill:#EE2A7B;}
	.st8{fill:#1C75BC;}
	.st9{fill:none;}
</style>
<path class="st6" d="M89.9,0C51.5,0.1,27.7,26.3,58.5,73C-9.1,71.4-24.7,162.3,47,192c54.8,22.7,82-6,143,15
	c-64-7.9-119.1,21.7-153.8,66.6C-2.4,323.4,12,393.7,76.5,373.9c-9,67.1,62.4,100.1,103.9,47.2c35.8-45.7,15.5-103.8,41.8-182.9
	c7.1,61.7-5.6,108.8,11.6,166.5c21.4,71.8,103.1,75.6,118.5,6.3c55.8,51.3,95.8-9.4,75.8-76.6c-18-60.3-90.8-98.2-167.6-118.7
	c72.8-3,108.8,44.5,167.8,30.1c72.4-17.7,64.4-108.4-10.8-128.9c45.8-54.9-19.4-110-87.2-93.1C273.2,38,239.4,95.7,228.3,167
	c-5.6-65.6-28.8-120.1-81-150.3C127.7,5.4,107.3,0,89.9,0L89.9,0z"/>
</svg>
