<?xml version="1.0" encoding="utf-8"?>
<!-- Generator: Adobe Illustrator 18.0.0, SVG Export Plug-In . SVG Version: 6.00 Build 0)  -->
<!DOCTYPE svg PUBLIC "-//W3C//DTD SVG 1.1//EN" "http://www.w3.org/Graphics/SVG/1.1/DTD/svg11.dtd">
<svg version="1.1" id="Layer_1" xmlns="http://www.w3.org/2000/svg" xmlns:xlink="http://www.w3.org/1999/xlink" x="0px" y="0px"
	 viewBox="0 0 562.3 453.8" enable-background="new 0 0 562.3 453.8" xml:space="preserve">
<g>
	<rect x="0.3" y="190.7" fill="#F7941E" width="562" height="80.8"/>
	<path fill="#F7941E" d="M281.3,74.1c-78.6,0-149.6,22-200.2,56.9C30.4,165.9,0.3,212.8,0.3,264c0,51.1,30.1,98.1,80.8,132.9
		c50.7,34.9,121.6,56.9,200.2,56.9c78.6,0,149.6-22,200.2-56.9c50.7-34.9,80.8-81.8,80.8-132.9c0-51.1-30.1-98.1-80.8-132.9
		C430.9,96.2,359.9,74.1,281.3,74.1L281.3,74.1z"/>
	<path fill="#F7941E" d="M278,2.9c-77.8,0-148,21.8-198.1,56.3C29.7,93.7,0,140.1,0,190.7c0,50.6,29.7,97,79.9,131.5
		c50.1,34.5,120.4,56.3,198.1,56.3c77.8,0,148-21.8,198.1-56.3c50.1-34.5,79.9-80.9,79.9-131.5c0-50.6-29.8-97-79.9-131.5
		C426,24.7,355.8,2.9,278,2.9L278,2.9z"/>
	<path fill="#FFF200" d="M281.3,0C202.8,0,131.8,22.1,81.1,57.2c-50.7,35-80.8,82.2-80.8,133.6c0,51.4,30.1,98.6,80.8,133.6
		c50.7,35,121.6,57.2,200.2,57.2c78.6,0,149.6-22.1,200.2-57.2c50.7-35,80.8-82.2,80.8-133.6c0-51.4-30.1-98.6-80.8-133.6
		C430.9,22.1,359.9,0,281.3,0L281.3,0z M283.4,25.3h0.2l1.3,0l-0.2,22.3l-1.2,0l-5.9,0l-0.1,0l-6,0.1h0l-5.8,0.2l-2.5,0.1l-1.3-22.3
		l2.6-0.2l0.1,0l0.1,0l6.1-0.3l0.1,0l0.1,0l6.1-0.2l0.1,0h0.1L283.4,25.3L283.4,25.3z M307.7,26.1l0.8,0l0.1,0l0.1,0l6,0.4l0.1,0
		l0.1,0l6,0.5l0.1,0l0.1,0l5.9,0.6l0.1,0l0.1,0l3.5,0.4l-2.8,22.1l-3.4-0.4l-0.1,0l-5.5-0.6l-0.1,0l-5.9-0.5l0,0l-5.7-0.4l-0.7,0
		L307.7,26.1L307.7,26.1z M238.9,27.9l2.8,22.1l-4.9,0.6l0,0l-5.5,0.8l-5.5,0.9l-0.1,0l-5.5,1l-3.9-22l5.6-1l0.1,0l0.1,0l5.8-0.9
		l0.1,0l0.1,0l5.8-0.8l0.1,0l0.1,0L238.9,27.9L238.9,27.9z M353.4,31.8l3.2,0.6l0.1,0l0.1,0l5.6,1.2l0.1,0l0.1,0l5.5,1.3l0.1,0
		l0.1,0l5.5,1.3l0.1,0l0.1,0l2,0.5l-5.7,21.6l-1.8-0.5l0,0l-5.3-1.3l-5.4-1.2l0,0l-5.3-1.1l-3.1-0.6L353.4,31.8L353.4,31.8z
		 M193.7,36.3l5.3,21.7l-0.5,0.1l0,0l-5.1,1.4l-5,1.4h0l-5.1,1.5l-0.1,0l-4.9,1.6l-6.9-21.2l4.9-1.6l0.1,0l0.1,0l5.3-1.6l0.1,0
		l0.1,0l5.3-1.5l0.1,0l0.1,0l5.4-1.4l0.1,0l0.1,0L193.7,36.3L193.7,36.3z M398,43.6l2.9,1l0.1,0l0.1,0l5,1.8l0.1,0l0.1,0l5,1.9
		l0.1,0l0.1,0l4.9,2l0.1,0l0.1,0l3,1.3l-8.8,20.5l-2.8-1.2l0,0l-4.6-1.9l-0.1,0l-4.9-1.9l0,0l-4.7-1.7l-2.8-1L398,43.6L398,43.6z
		 M149.7,50.9l8.8,20.5l-4,1.7l-0.1,0l-4.6,2.1l-4.4,2.1l-4.3,2.1l-0.1,0l-2,1.1l-10.3-19.8l2.1-1.1l0.1-0.1l0.1,0l4.6-2.3l0.1,0
		l0.1,0l4.6-2.2l0.1,0l0.1,0l4.7-2.1l0.1,0l0.1,0L149.7,50.9L149.7,50.9z M440.5,61.9L440.5,61.9l0.2,0.1l0.1,0.1l4.4,2.4l0.1,0.1
		l0.1,0.1l4.3,2.5l0.1,0.1l0.1,0.1l4.2,2.5l0.1,0.1l0.1,0.1l4.1,2.6l0.1,0.1l0.1,0.1l2.1,1.4l-12.4,18.6l-2-1.3l-4-2.5l0,0l-3.9-2.4
		l-4.1-2.4l-4.1-2.3l0,0l-0.1-0.1l2.8-5.2L440.5,61.9L440.5,61.9z M108.6,72.4l8,12.7l4,6.1l-3.9,2.6l-3.7,2.6l-3.7,2.7l0,0
		l-3.4,2.6l-2.4,2l-14-17.4l2.5-2.1l0.1-0.1l0.1-0.1l3.7-2.8l0.1-0.1l0.1-0.1l3.8-2.8l0.1-0.1l0.1-0.1l3.9-2.7l0.1-0.1l0.1-0.1
		l4-2.7l0.1-0.1L108.6,72.4L108.6,72.4L108.6,72.4z M479.6,88.1l2.6,2.2l0.1,0.1l0.1,0.1l3.4,3l0.1,0.1l0.1,0.1l3.3,3.1l0.1,0.1
		l0.1,0.1l3.2,3.1l0.1,0.1l0.1,0.1l3.1,3.2l0.1,0.1l0.1,0.1l0.7,0.8l-16.5,15l-0.6-0.7l-2.8-3l-2.9-2.9l-3.1-2.9l-3.3-2.9l0,0
		l-2.3-2L479.6,88.1L479.6,88.1z M72.1,102.3l16.1,15.5l-1,1l-2.7,3l-2.6,3l-2.5,3.1l-2.4,3.1l-2,2.8l-18.1-13l2.1-2.9l0.1-0.1
		l0.1-0.1l2.6-3.4l0.1-0.1l0.1-0.1l2.7-3.3l0.1-0.1l0.1-0.1l2.8-3.3l0.1-0.1l0.1-0.1l2.9-3.2l0.1-0.1l0.1-0.1L72.1,102.3L72.1,102.3
		z M293.9,107.4l1.9,2.2l42.7,84.9L293.9,142l-32.7,38.6l-18.9-12.2l43.1-50.9L293.9,107.4L293.9,107.4z M124.8,121.6l9.7,4.1
		l107.2,68.9l-81.5-34l31.6,102l102.1,7.5l102.6-7.4l-11.2,23.2l-91.4,6.6L175,283.6L124.8,121.6L124.8,121.6z M464.1,121.7
		l-0.8,2.6l-65,134.6l30.5-98.4l-68.3,28.2l-10-20L464.1,121.7L464.1,121.7z M511.7,123.2l1.2,1.8l0.1,0.1l0.1,0.1l2.2,3.5l0.1,0.1
		l0.1,0.2l2.1,3.5l0.1,0.2l0.1,0.2l1.9,3.6l0.1,0.2l0.1,0.2l1.8,3.6l0.1,0.2l0.1,0.2l1.6,3.4l-20.3,9.3l-1.5-3.2l-1.7-3.3l-1.8-3.3
		l-1.9-3.2l-2-3.1l-1.1-1.7L511.7,123.2L511.7,123.2z M44.6,141.9l20.3,9.3l-1.1,2.4l-1.4,3.3l-1.2,3.3l-1.1,3.4l-1,3.4l-0.8,3.2
		l-21.6-5.5l0.9-3.4l0.1-0.2l0.1-0.2l1.1-3.8l0.1-0.2l0.1-0.2l1.3-3.8l0.1-0.2l0.1-0.2l1.4-3.7l0.1-0.2l0.1-0.2l1.5-3.7l0.1-0.2
		l0.1-0.2L44.6,141.9L44.6,141.9z M531,167.7l0.4,1.7l0,0.2l0,0.2l0.7,3.9l0,0.2l0,0.2l0.5,3.9l0,0.2l0,0.2l0.4,4l0,0.2l0,0.2l0.2,4
		l0,0.2l0,0.2l0.1,4l0,0.2l0,0.2l0,0.6l-22.3-0.4l0-0.4l-0.1-3.6l-0.2-3.6l-0.3-3.5l-0.5-3.5l-0.6-3.4l-0.3-1.6L531,167.7L531,167.7
		z M33.4,189.4l22.3,0.4l0,1.7l0.1,3.6l0.2,3.6l0.3,3.5l0.5,3.5l0.6,3.4l0.1,0.3l-21.8,4.7l-0.1-0.5l0-0.2l0-0.2l-0.7-3.9l0-0.2
		l0-0.2l-0.5-3.9l0-0.2l0-0.2l-0.4-4l0-0.2l0-0.2l-0.2-4l0-0.2l0-0.2l-0.1-4l0-0.2l0-0.2L33.4,189.4L33.4,189.4z M508.9,212
		l21.8,4.7l-0.2,0.9l0,0.2l-0.1,0.2l-1,3.8l0,0.2l-0.1,0.2l-1.1,3.8l-0.1,0.2l-0.1,0.2l-1.3,3.8l-0.1,0.2l-0.1,0.2l-1.4,3.7
		l-0.1,0.2l-0.1,0.2l-1.5,3.7l-0.1,0.2l-0.1,0.2l-0.6,1.4l-20.3-9.3l0.6-1.2l1.4-3.3l1.3-3.3l1.1-3.4l1-3.4l0.9-3.4L508.9,212
		L508.9,212z M63.5,228.8l0.3,0.8l1.5,3.3l1.6,3.3l1.8,3.3l1.9,3.3l2,3.1l0.4,0.6l-18.5,12.5l-0.5-0.7l-0.1-0.1l-0.1-0.1l-2.2-3.5
		l-0.1-0.2l-0.1-0.2l-2.1-3.5l-0.1-0.2l-0.1-0.2l-1.9-3.6l-0.1-0.2l-0.1-0.2l-1.8-3.6l-0.1-0.2l-0.1-0.2l-1.7-3.7l-0.1-0.2l-0.1-0.2
		l-0.4-1L63.5,228.8L63.5,228.8z M492.4,248.6l18.5,12.5l-0.4,0.6l-0.1,0.1l-0.1,0.1l-2.5,3.4l-0.1,0.1l-0.1,0.1l-2.6,3.4l-0.1,0.1
		l-0.1,0.1l-2.7,3.3l-0.1,0.1l-0.1,0.1l-2.8,3.3l-0.1,0.1l-0.1,0.1l-2.9,3.2l-0.1,0.1l-0.1,0.1l-0.1,0.1l-13.1-12.6l-3.1-2.8
		l0.1-0.1l0,0l2.7-3l2.6-3l2.5-3.1l2.4-3.1l2.2-3.1L492.4,248.6L492.4,248.6z M85.8,262.7l1.5,1.7l2.8,3l2.9,2.9l3.1,2.9l3.2,2.8
		l1.4,1.2l-14.4,17l-1.6-1.3l-0.1-0.1l-0.1-0.1l-3.4-3l-0.1-0.1l-0.1-0.1l-3.3-3.1l-0.1-0.1l-0.1-0.1l-3.2-3.1l-0.1-0.1l-0.1-0.1
		l-3.1-3.2l-0.1-0.1l-0.1-0.1l-1.6-1.8L85.8,262.7L85.8,262.7z M1.4,273.1c2,15.3,6.6,30.1,13.7,44.3v-24.2
		C10.1,286.7,5.5,280,1.4,273.1L1.4,273.1z M561.3,273.1c-5.3,8.9-11.4,17.5-18.2,25.7v27C552.7,309.1,558.9,291.4,561.3,273.1
		L561.3,273.1z M464.4,278.7l14,17.4l-3.6,2.9l-0.1,0.1l-0.1,0.1l-3.7,2.8l-0.1,0.1l-0.1,0.1l-3.8,2.8l-0.1,0.1l-0.1,0.1l-3.9,2.7
		l-0.1,0.1l-0.1,0.1l-3,2l-12.4-18.6l2.9-1.9l3.7-2.5l3.6-2.6l3.5-2.7L464.4,278.7L464.4,278.7z M117.6,289.9l3.1,2l3.9,2.5l4,2.4
		l4.1,2.4l3.2,1.8l-10.7,19.6l-3.3-1.8l-0.1-0.1l-0.1-0.1l-4.3-2.5l-0.1-0.1l-0.1-0.1l-4.2-2.5l-0.1-0.1l-0.1-0.1l-4.1-2.6l-0.1-0.1
		l-0.1-0.1l-3.2-2.1L117.6,289.9L117.6,289.9z M429,302.1l10.3,19.8l-3.2,1.7l-0.1,0.1l-0.1,0.1l-4.6,2.3l-0.1,0l-0.1,0l-4.6,2.2
		l-0.1,0l-0.1,0l-4.7,2.1l-0.1,0l-0.1,0l-3,1.3l-8.8-20.5l3-1.3l0,0l4.5-2l4.4-2.1l4.4-2.2l0,0L429,302.1L429,302.1z M154.9,310.2
		l4.1,1.8l0,0l4.6,1.9l0.1,0l4.7,1.8l4.8,1.8l1.6,0.6l-7.2,21.1l-1.7-0.6l-0.1,0l-0.1,0l-5-1.8l-0.1,0l-0.1,0l-5-1.9l-0.1,0l-0.1,0
		l-4.9-2l-0.1,0l-0.1,0l-4.2-1.8L154.9,310.2L154.9,310.2z M37.5,317.6v33.2c6,7.1,12.7,13.9,20,20.5v-36.6
		C50.4,329.3,43.7,323.6,37.5,317.6L37.5,317.6z M389.6,318.9l7.2,21.1l-1,0.3l-0.1,0l-0.1,0l-5.2,1.7l-0.1,0l-0.1,0l-5.3,1.6
		l-0.1,0l-0.1,0l-5.3,1.5l-0.1,0l-0.1,0l-4.7,1.2L369,325l4.5-1.2l0.1,0l5.2-1.5l0,0l5.1-1.5l0,0l4.9-1.6L389.6,318.9L389.6,318.9z
		 M520.7,321.8c-6.3,5.7-13,11.1-20,16.3v37.2c7.3-6.1,13.9-12.6,20-19.3V321.8z M195.5,324.3l3.2,0.8l0,0l5.2,1.3l5.2,1.2l0,0
		l5.4,1.1l1.9,0.4l-4.2,21.9l-1.9-0.4l-0.1,0l-0.1,0l-5.6-1.2l-0.1,0l-0.1,0l-5.5-1.3l-0.1,0l-0.1,0l-5.5-1.3l-0.1,0l-0.1,0
		l-3.2-0.9L195.5,324.3L195.5,324.3z M347.9,329.7l4.2,21.9l-1.2,0.2l-0.1,0l-0.1,0l-5.7,1l-0.1,0l-0.1,0l-5.8,0.9l-0.1,0l-0.1,0
		l-5.8,0.8l-0.1,0l-0.1,0l-3.6,0.5l-2.8-22.1l3.5-0.4l0,0l5.7-0.8l0.1,0l5.4-0.9l0.1,0l5.6-1l0,0L347.9,329.7L347.9,329.7z
		 M237.8,332.6l4.7,0.6l0.1,0l5.5,0.6l0.1,0l5.7,0.5l0,0l5.5,0.4l-1.7,22.3l-5.6-0.4l-0.1,0l-0.1,0l-6-0.5l-0.1,0l-0.1,0l-5.9-0.6
		l-0.1,0l-0.1,0l-4.8-0.6L237.8,332.6L237.8,332.6z M305.1,334.9l1.3,22.3l-3.9,0.2l-0.1,0l-0.1,0l-6.1,0.3l-0.1,0l-0.1,0l-6.1,0.1
		l-0.1,0l-0.1,0l-6.2,0l-0.1-11.2l-0.1,11.2l-2.6,0l0.2-22.3l2.5,0l5.9,0l0.1,0l5.9-0.1h0l6-0.2L305.1,334.9L305.1,334.9z
		 M79.8,350.2V389c0.4,0.3,0.9,0.6,1.3,0.9c7,4.8,14.3,9.4,22,13.7v-40.2C95.1,359.2,87.3,354.8,79.8,350.2L79.8,350.2z
		 M478.4,352.9c-7.5,4.5-15.3,8.7-23.3,12.7V406c8.2-4.4,16-9.1,23.3-14L478.4,352.9L478.4,352.9z M125.5,373.7v41.1
		c8,3.7,16.4,7.1,25,10.1v-41.9C141.9,380.3,133.6,377.1,125.5,373.7L125.5,373.7z M432.7,375.6c-8.1,3.3-16.5,6.3-25,9v42
		c8.6-3,16.9-6.2,25-9.7L432.7,375.6L432.7,375.6z M172.8,389.8v42.3c7.9,2.3,15.9,4.3,24.2,6.1v-42.7
		C188.7,393.9,180.7,392,172.8,389.8L172.8,389.8z M385.4,391c-7.9,2-16,3.8-24.2,5.4v42.8c8.2-1.7,16.3-3.6,24.2-5.7V391z
		 M219.3,399.4v42.9c8.2,1.3,16.5,2.3,25,3.1v-43.1C235.8,401.5,227.5,400.6,219.3,399.4L219.3,399.4z M338.9,400
		c-8.8,1.2-17.7,2.1-26.7,2.7v43.1c9-0.7,17.9-1.6,26.7-2.9V400L338.9,400z M266.6,403.6v43.2c4.9,0.2,9.8,0.3,14.8,0.3
		c2.9,0,5.7,0,8.6-0.1v-43.2c-2.9,0.1-5.7,0.1-8.6,0.1C276.4,403.8,271.5,403.7,266.6,403.6L266.6,403.6z"/>
</g>
</svg>
