<?xml version="1.0" encoding="utf-8"?>
<!-- Generator: Adobe Illustrator 19.1.1, SVG Export Plug-In . SVG Version: 6.00 Build 0)  -->
<svg version="1.1" id="Layer_1" xmlns="http://www.w3.org/2000/svg" xmlns:xlink="http://www.w3.org/1999/xlink" x="0px" y="0px"
	 viewBox="0 0 364.4 470.4" style="enable-background:new 0 0 364.4 470.4;" xml:space="preserve">
<style type="text/css">
	.st0{fill:#ED1C24;}
	.st1{fill:#FFF200;}
	.st2{fill:#603913;}
	.st3{fill:#939598;}
	.st4{fill:#27AAE1;}
	.st5{fill:#FFFFFF;}
	.st6{fill:#00A651;}
	.st7{fill:#EE2A7B;}
	.st8{fill:#1C75BC;}
	.st9{fill:none;}
</style>
<path d="M217.3,0C160,0,156,36.2,126.2,54.9C28.8,20.3,7.1,199.3,43.8,307.8C28.4,339.7,13.1,383.7,0,442.7
	c56.8,30.7,119.1,38.7,182.2,9.9c-6.2-37.7-14.2-68.9-22-95.4c25-12.6,59.6-14.6,86.5,14.4c0.2-28.6-19-41-40.5-42.3l-22-47.3
	c42.6-45.1,74.4-100.2,57.9-157.1c-10.3-38.4,58.2-62.2,122.3-53.8c-24.5-21.2-56-30.5-85.8-33.9C269.8,15.6,246,0,217.3,0L217.3,0z
	 M228.2,21.9c9.8,0,17.8,7.9,17.8,17.7c0,9.8-8,17.8-17.8,17.8c-9.8,0-17.8-7.9-17.8-17.8C210.5,29.9,218.4,21.9,228.2,21.9
	L228.2,21.9z M170.2,296.2l16.3,34.9c-11.6,2.7-22.3,8.2-29.3,15.7c-3.3-10.8-6.5-20.9-9.5-30.3
	C155.2,310.1,162.8,303.3,170.2,296.2L170.2,296.2z"/>
</svg>
