<?xml version="1.0" encoding="utf-8"?>
<!-- Generator: Adobe Illustrator 19.1.1, SVG Export Plug-In . SVG Version: 6.00 Build 0)  -->
<svg version="1.1" id="Layer_1" xmlns="http://www.w3.org/2000/svg" xmlns:xlink="http://www.w3.org/1999/xlink" x="0px" y="0px"
	 viewBox="0 0 392.8 400.5" style="enable-background:new 0 0 392.8 400.5;" xml:space="preserve">
<style type="text/css">
	.st0{fill:#ED1C24;}
	.st1{fill:#FFF200;}
	.st2{fill:#603913;}
	.st3{fill:#939598;}
	.st4{fill:#27AAE1;}
	.st5{fill:#FFFFFF;}
	.st6{fill:#00A651;}
	.st7{fill:#EE2A7B;}
	.st8{fill:#1C75BC;}
	.st9{fill:none;}
</style>
<path d="M392.5,146.3C387.9,58.8,300.7,0,186.9,0C73.2,0-2.5,71.3,0.1,152.4c0.7,20.4,4.8,40.5,12.9,58.9
	c26,35.8,75,53.7,114.4,57.4l-73.9,10.8l-20.3,50.8c11.7,11.9,24.4,22.2,37.7,31.1l18.1-64.4l27.8,7.8l-20.1,71.5
	c16,7.9,32.7,13.9,49.7,17.9l6.1-71.4l28.9,2.5l-6.3,73.8c17.4,1.9,34.9,1.8,52.3-0.2l-6.4-73.6l28.8-2.5l6.2,70.9
	c15.6-3.9,30.9-9.4,45.6-16.5l-20.3-72.2l27.8-7.8l18.4,65.3c12-7.8,23.4-16.9,34.1-27.1L337,278.9l-69.3-10.1
	c38.5-3.6,86.2-20.8,112.6-55C390,193.3,393.8,170.7,392.5,146.3z M72,128.2c27.8,38,54.8,49,97.7,53.9
	C117,272.9-1.9,197.6,72,128.2z M168.3,285.2l33.1-86.3l35.7,83.2C219,293.2,185.8,293.1,168.3,285.2z M234.7,182.1
	c42.9-4.9,69.9-15.9,97.7-53.9C406.4,197.6,287.5,272.9,234.7,182.1z"/>
</svg>
