<?xml version="1.0" encoding="utf-8"?>
<!-- Generator: Adobe Illustrator 19.1.1, SVG Export Plug-In . SVG Version: 6.00 Build 0)  -->
<svg version="1.1" id="Layer_1" xmlns="http://www.w3.org/2000/svg" xmlns:xlink="http://www.w3.org/1999/xlink" x="0px" y="0px"
	 viewBox="0 0 476.2 477.2" style="enable-background:new 0 0 476.2 477.2;" xml:space="preserve">
<style type="text/css">
	.st0{fill:#ED1C24;}
	.st1{fill:#FFF200;}
	.st2{fill:#603913;}
	.st3{fill:#939598;}
	.st4{fill:#27AAE1;}
	.st5{fill:#FFFFFF;}
	.st6{fill:#00A651;}
	.st7{fill:#EE2A7B;}
	.st8{fill:#1C75BC;}
	.st9{fill:none;}
</style>
<path class="st6" d="M306.7,0c0,0,0.1,0.1,0.1,0.1l-34.9,32.4l36.9-3.8l-15.4,30.1l38-16.1c26.1,70,0.6,154.3-52.6,166.3
	c-6.6-25.4-34.1-37.9-36.1-57.4c0.3,0.1,0.6,0.2,0.9,0.3c4.8,1.3,9.7,1.2,14.3-0.1l25.1,22.9l20.7-16.4c-7.4,2.8-28.6-1.4-33.3-13.9
	c3.2-3.2,5.5-7.3,6.8-11.9c0.5-1.8,0.8-3.6,0.9-5.4l11.5,22.8l5.2-16.9c7.6,5.6,12.5,13.6,11.5,21.1l16.7-29.4L251,95.1l-58.1-48
	L210,78.4l-48.2-19.8l35.1,31.2c-40.6,28.2-22.1,85-1.8,119.3c-57.5-9.7-103.1-77.4-95.8-145l49.2-21.4l-31.1-5.1l29.2-33.4
	l-32,11.5c0-0.1,0.1-0.1,0.1-0.2c-168.4,66.3-116.4,367-63.7,418c-0.2-1.3-0.4-2.6-0.5-3.9C35.6,373.4,30.2,304,33,239.1
	c3-68.2,14.8-131.2,36.8-169.5l16.2,9.3c-18.9,33-31.4,94.6-34.3,161.1c-1.9,43.9,0.1,90,6.3,132.1c6.1,1.9,15,9.6,27.3,23.2
	c-4.8-13.4-6.8-26.5-6.5-38.3c20.3,41.7,67.3,69.2,104.6,62.3c22.4-4.2,41.8-12.7,57.8-24.5l7.3,15.4c-20.1,5-22.8,32.6-14.7,55.1
	c1.7-19.9,11.4-29.8,21.7-32.3c-6.6,15.9-4.7,30.6-3.1,44.2c10.2-12.1,21.5-23.8,23.6-39.4c8.7,7.3,12.3,21.5,1.2,39.1
	c26.3-15.5,31.6-42,8-57.7l-32.1-34.3c5.9-5.5,11.2-11.6,15.9-18.1l39.3,15.8c-3.9,13.7,5.8,31.5,19.8,43.3
	c-8.1-17.3-4.8-30.1,2.6-37.1c1.6,17.4,10.6,29.2,18.7,40.1c2.7-15.7,6.8-31.5-0.2-46c11,1.6,21.2,11.6,20.3,31.9
	c14.4-25.3,6.1-49.7-20.7-51.5l-71.1-9.9c12.8-23,18.7-49.8,17-77.5c14.2-34.7,50.1-11.8,54.5,49.2c27.4-80.3,67.1-38.6,58.8,24.5
	c11.8-23.4,21.8-35,29.9-36.2c-10.8-91.9-40.5-191.6-77.6-250.7l15.8-9.9c50.3,80.1,85.1,220.6,84.9,331.5
	C503.4,268.3,458.6,27.6,306.7,0L306.7,0z M277.3,476.9L277.3,476.9L277.3,476.9C277.2,477,277.2,476.9,277.3,476.9L277.3,476.9z
	 M303.8,158.4L303.8,158.4L303.8,158.4L303.8,158.4L303.8,158.4z M250.4,116.7c0.9,0,1.8,0.1,2.7,0.3c4.8,1.3,7.5,5.9,6.2,10.7
	c-1.3,4.8-5.9,7.5-10.7,6.2c-4.8-1.3-7.5-5.9-6.2-10.7c1-3.6,3.8-6,7.2-6.4C249.9,116.7,250.2,116.7,250.4,116.7L250.4,116.7z
	 M186.6,279.6c11.9-0.2,22.6,6.8,26.2,22.5c0,35.9-9.6,68.8-42.1,77.4c-27.6,7.3-69.7-11.4-84.1-53.7c12.3-21.1,37.4-22,62.8,22.6
	C136.8,306.8,163.8,280,186.6,279.6L186.6,279.6z"/>
</svg>
