<?xml version="1.0" encoding="utf-8"?>
<!-- Generator: Adobe Illustrator 19.1.1, SVG Export Plug-In . SVG Version: 6.00 Build 0)  -->
<svg version="1.1" id="Layer_1" xmlns="http://www.w3.org/2000/svg" xmlns:xlink="http://www.w3.org/1999/xlink" x="0px" y="0px"
	 viewBox="0 0 473.1 433" style="enable-background:new 0 0 473.1 433;" xml:space="preserve">
<style type="text/css">
	.st0{fill:#ED1C24;}
	.st1{fill:#FFF200;}
	.st2{fill:#603913;}
	.st3{fill:#939598;}
	.st4{fill:#27AAE1;}
	.st5{fill:#FFFFFF;}
	.st6{fill:#00A651;}
	.st7{fill:#EE2A7B;}
	.st8{fill:#1C75BC;}
	.st9{fill:none;}
</style>
<g>
	<polygon class="st5" points="226.8,0 174.4,153.5 201.1,215.4 239.9,163.1 293.2,230.6 304.8,190.1 226.8,0 	"/>
	<polygon class="st5" points="82.1,174.6 53.1,254.8 77.6,242.1 102.4,256.4 114.1,208.4 82.1,174.6 	"/>
	<polygon class="st2" points="165.4,179.9 144.6,240.8 129.4,224.6 114.7,285.1 77.1,263.4 43.7,280.7 0,401.3 84.9,432.2 
		158.3,409.8 232.2,429.3 303.9,407.7 395.9,433 473.2,401.3 424.7,312.3 385.7,339 346.8,311.4 319.6,354.2 303.8,344.2 
		342.9,282.6 316.3,217.9 301,270.7 240.4,193.8 196.7,252.6 165.4,179.9 	"/>
	<polygon class="st5" points="388.5,245.7 356.8,295.6 385.9,316.2 415.7,295.8 388.5,245.7 	"/>
</g>
</svg>
