<?xml version="1.0" encoding="utf-8"?>
<!-- Generator: Adobe Illustrator 18.0.0, SVG Export Plug-In . SVG Version: 6.00 Build 0)  -->
<!DOCTYPE svg PUBLIC "-//W3C//DTD SVG 1.1//EN" "http://www.w3.org/Graphics/SVG/1.1/DTD/svg11.dtd">
<svg version="1.1" id="Layer_1" xmlns="http://www.w3.org/2000/svg" xmlns:xlink="http://www.w3.org/1999/xlink" x="0px" y="0px"
	 viewBox="0 0 672 672" enable-background="new 0 0 672 672" xml:space="preserve">
<g>
	<polygon fill="#010002" points="0,0 0,216.7 81.3,135.4 135.4,81.3 216.7,0 	"/>
	<polygon fill="#010002" points="455.3,0 536.6,81.3 590.8,135.4 672,216.7 672,0 	"/>
	<polygon fill="#010002" points="0,455.3 0,672 216.7,672 135.4,590.8 81.3,536.6 	"/>
	<polygon fill="#010002" points="534.6,589.8 453.3,671 670,671 670,454.3 588.8,535.6 	"/>
	<path fill="#010002" d="M429.8,65.8l-39.6,99.8l133.1,133.2L593,229L429.8,65.8z M237.9,72C120.3,152.2,38.1,265.1,35,417.9
		C109.5,274.5,229.5,148.4,340.5,95L237.9,72L237.9,72z M124.6,90.5l-35.4,35.4c8.7,8.3,17.4,16.6,26.1,25
		c10.6-12.4,22-24.4,33.9-35.8C149.2,115.1,124.6,90.5,124.6,90.5z M548.1,90.5l-31,30.9l34.4,34.4c10.7-10,21.3-20,32-30
		L548.1,90.5z M232.2,198c-11.3,10.2-22.5,21.1-33.6,32.4c30.2,28.9,60.5,57.9,90.6,87.1l31.4-31.3L232.2,198L232.2,198z
		 M415.7,222.8L88.9,549.1l35.1,35C224,469,334.5,360.8,447.1,254.2L415.7,222.8L415.7,222.8z M381.9,347.5
		c-10.4,10.1-20.8,20.2-31.1,30.3c66.9,66.3,133.1,134.5,197.7,206.4l35.2-35.2L381.9,347.5L381.9,347.5z"/>
</g>
</svg>
