<?xml version="1.0" encoding="utf-8"?>
<!-- Generator: Adobe Illustrator 19.1.1, SVG Export Plug-In . SVG Version: 6.00 Build 0)  -->
<svg version="1.1" id="Layer_1" xmlns="http://www.w3.org/2000/svg" xmlns:xlink="http://www.w3.org/1999/xlink" x="0px" y="0px"
	 viewBox="0 0 445.5 318.7" style="enable-background:new 0 0 445.5 318.7;" xml:space="preserve">
<style type="text/css">
	.st0{fill:#ED1C24;}
	.st1{fill:#FFF200;}
	.st2{fill:#603913;}
	.st3{fill:#939598;}
	.st4{fill:#27AAE1;}
	.st5{fill:#FFFFFF;}
	.st6{fill:#00A651;}
	.st7{fill:#EE2A7B;}
	.st8{fill:#1C75BC;}
	.st9{fill:none;}
</style>
<g>
	<path class="st7" d="M134.8,0C83.8,0.2,34.4,27.4,4,51.3c-4.5,3.5-5.3,9.9-1.8,14.3c3.5,4.5,9.9,5.3,14.3,1.8c0,0,0.1-0.1,0.1-0.1
		c32.6-25.7,91.6-55.1,141.6-44.7c19.4,4,65.1,20.7,116.9,34.3C327,70.6,385.9,81.5,436.9,73.4c5.6-0.9,9.4-6.1,8.5-11.7
		c-0.9-5.6-6.1-9.4-11.7-8.5c-45.7,7.2-102.6-2.7-153.3-16C229.6,23.9,186.1,7.6,162.4,2.7c-7.5-1.6-15.1-2.4-22.6-2.7
		C138.1,0,136.5,0,134.8,0L134.8,0z"/>
	<path class="st7" d="M124.3,89.6c-24.2-0.2-47.5,5.5-68.2,21.8c-5.5,4.3-17.3,15-28.9,27.1c-5.8,6-11.4,12.3-15.8,18.3
		c-4.4,6-8.3,10.7-9,18.7c-0.3,3.5,0.9,9.2,5.1,12.3c4.2,3.1,8.2,2.8,10.9,2.4c5.5-0.8,9.5-2.8,14-4.7c4.4-1.9,8.9-3.7,11.8-4.5
		c0.9-0.2,1.2-0.2,1.6-0.3c12.6,11.6,27.4,18.4,43.1,21.6c1.4,9.4,2,16.3,2.2,21.3c-1.4-1.2-3.2-2.6-8.2-2.6c-3.2,0-7.6,2.4-9.5,5.1
		c-1.8,2.8-2.1,5-2.2,6.8c-0.6,9.2,2.7,16,5.1,20.9c2.4,4.9,4.6,9.5,5.8,21c1.3,12.6,1.3,11.8,1.3,12.9c0,1.1-0.1,4.4,1.1,21.4
		c0.4,5.6,5.3,9.9,10.9,9.5c5.6-0.4,9.9-5.3,9.5-10.9c-1.1-16.8-1.1-18.2-1.1-19.7c0-1.5-0.1-2.8-1.4-15.3
		c-1.1-10.8-3.6-18.3-5.9-23.7c3.1,0,6.5-0.8,9.1-3.1c4.1-3.6,5.1-7.9,5.7-12.3c0.9-6.7,0.5-15.4-1.3-28.3
		c41.3,38.4,67.6,62.6,92.5,78.7c25.6,16.5,49.9,23.9,84.5,28.5c25.1,3.3,58.4,4.9,88.1-0.7c14.8-2.8,28.8-7.4,40.4-15.3
		c11.6-7.8,20.6-19.3,23.8-34c3.5-16.2-6.4-30.5-18.3-40.4c-11.9-9.9-27.1-16.8-42.5-13.6c-12.1,2.5-20.6,11.6-26.5,21.8
		c-2.9,5.1-5.1,10.8-5.1,17.2c0,6.4,3.3,13.8,9.5,18c4.7,3.1,11,1.9,14.2-2.8s1.9-11-2.8-14.2c-0.8-0.5-0.4,0.2-0.4-1.1
		s0.7-4.1,2.4-7.1c3.4-5.9,11.1-11.6,12.9-11.9c5.6-1.2,16.9,2.4,25.2,9.3c8.3,6.9,12.4,15.7,11.3,20.5c-2,9.3-7,15.8-15.3,21.3
		c-8.2,5.6-19.7,9.6-32.8,12.1c-26.1,5-58.1,3.6-81.6,0.5c-33.1-4.4-52.9-10.5-76.1-25.4c-20-12.9-42.6-32.9-76.3-64.1
		c10.8-1.5,21.8-3.9,32.7-6.8c45.4-12.1,92-32.9,128-40.9c45.9,8.6,92.3,8.6,138.6-3.5c5.5-1.4,8.8-6.9,7.4-12.4
		c-1.1-4.5-5.2-7.7-9.8-7.7c-0.9,0-1.8,0.1-2.7,0.3c-45.8,11.9-91.6,11.3-137.9,1.6c-1.1-0.2-2.3-0.3-3.4-0.1
		c-35.7-8.7-75.1-25.7-113.9-35.9c-15.7-4.1-31.5-7-47.1-7.7C127.5,89.6,125.9,89.6,124.3,89.6L124.3,89.6z"/>
	<path class="st5" d="M125.6,109.9c1.1,0,2.1,0,3.2,0.1c13.3,0.6,27.4,3.3,42.2,7.2c28,7.3,57.5,18.9,86.9,28.2
		c-30.3,9.9-62.5,22.8-93.2,30.9c-8.4,2.2-16.6,4.1-24.6,5.4c11.4-6.9,19.1-19.1,19.1-33.2C159.2,129.1,144.5,113.1,125.6,109.9
		L125.6,109.9z"/>
	<path class="st5" d="M106.7,111c-16.4,4.9-28.6,19.8-28.6,37.4c0,15.4,9.2,28.6,22.5,35c-16.4-1.8-30.3-7.4-42.3-19
		c-3.2-3.1-7.4-4.2-10.6-4.4c-3.3-0.2-6,0.4-8.7,1.1c-2.4,0.6-4.7,1.4-6.9,2.3c3-3.5,6.2-7.2,9.8-10.9
		c10.9-11.4,23.4-22.5,26.8-25.2C80.4,118.2,93.1,113.2,106.7,111z"/>
</g>
</svg>
