<?xml version="1.0" encoding="utf-8"?>
<!-- Generator: Adobe Illustrator 19.1.1, SVG Export Plug-In . SVG Version: 6.00 Build 0)  -->
<svg version="1.1" id="Layer_1" xmlns="http://www.w3.org/2000/svg" xmlns:xlink="http://www.w3.org/1999/xlink" x="0px" y="0px"
	 viewBox="0 0 364.3 474.3" style="enable-background:new 0 0 364.3 474.3;" xml:space="preserve">
<style type="text/css">
	.st0{fill:#ED1C24;}
	.st1{fill:#FFF200;}
	.st2{fill:#603913;}
	.st3{fill:#939598;}
	.st4{fill:#27AAE1;}
	.st5{fill:#FFFFFF;}
	.st6{fill:#00A651;}
	.st7{fill:#EE2A7B;}
	.st8{fill:#1C75BC;}
	.st9{fill:none;}
</style>
<g>
	<path class="st0" d="M114.6,258.2c-15.2-19.9-15.2-65.2-0.1-100.9c5-11.8,11.1-20.6,17.4-27c-14.2,1.8-30.3,17.2-41.3,43.1
		C73.4,214,74,265.3,91.4,287.9c13,17,31.7,13.4,47.7-6.7c2.7-3.4,5.3-7.2,7.8-11.4c2.5-4.2,4.8-8.9,7-14c0.1-0.3,0-0.8,0.1-1.1
		C140.6,269.6,125.3,272.1,114.6,258.2z M236.8,0c43.9,64.5,35.4,170.7,1.5,250.1c1-46.3-5.5-98.2-22.3-153.6
		c11.8,131-91.8,279.1-140,217.4c-23.4-30-31.8-118.4,9.2-183.1c-25.1,15.8-44.5,42.5-56.8,74.4c-64.8,123.7-18.1,269.2,131.4,269.2
		C350.2,474.3,467.5,165.5,236.8,0z M55.5,361.3c18.8,12.6,38.4,18.6,57.5,18.6c44.9,0,86-33.5,101.5-93.1l7.4,63.3
		c38.3-36,60.4-62.1,84.4-120.4h0C291.7,453.2,89.6,461.1,55.5,361.3z"/>
	<path class="st1" d="M306.3,229.7C291.7,453.2,89.6,461.1,55.5,361.3c18.8,12.6,38.4,18.6,57.5,18.6c44.9,0,86-33.5,101.5-93.1
		l7.4,63.3C260.2,314.1,282.3,288,306.3,229.7L306.3,229.7z"/>
</g>
</svg>
