<?xml version="1.0" encoding="utf-8"?>
<!-- Generator: Adobe Illustrator 19.1.1, SVG Export Plug-In . SVG Version: 6.00 Build 0)  -->
<svg version="1.1" id="Layer_1" xmlns="http://www.w3.org/2000/svg" xmlns:xlink="http://www.w3.org/1999/xlink" x="0px" y="0px"
	 viewBox="0 0 472.1 464" style="enable-background:new 0 0 472.1 464;" xml:space="preserve">
<style type="text/css">
	.st0{fill:#ED1C24;}
	.st1{fill:#FFF200;}
	.st2{fill:#603913;}
	.st3{fill:#939598;}
	.st4{fill:#27AAE1;}
	.st5{fill:#FFFFFF;}
	.st6{fill:#00A651;}
	.st7{fill:#EE2A7B;}
	.st8{fill:#1C75BC;}
	.st9{fill:none;}
</style>
<path class="st6" d="M236,0c-31.5,48-62.9,96-62.9,160c0,56.8,37.1,113.6,45.5,148h34.8c8.4-34.4,45.5-91.2,45.5-148
	C299,96,267.5,48,236,0z M78.7,182C31.5,182,0,214,0,262c0,32,22.1,63.5,62.9,64c-15.7-16,0-64,31.5-64c31.9,0,56.6,21.9,69.3,46
	h33.8C183.7,260.5,148.4,182,78.7,182L78.7,182z M393.4,182c-69.7,0-105.1,78.5-118.8,126h33.8c12.7-24.1,37.4-46,69.3-46
	c31.5,0,47.2,48,31.5,64c40.8-0.5,62.9-32,62.9-64C472.1,214,440.6,182,393.4,182L393.4,182z M133.1,326c-38.7,0-54.4,16-54.4,48
	c0,16,15.7,48,47.2,48c35.4,0,61.9-27,73-54h-35.7c-4.7,3.6-11.5,6-21.6,6C125.9,374,110.1,342,133.1,326L133.1,326z M170.8,326
	c0,0.1,0,0.1,0,0.2c-13.3,2.2-12.7,23.3,1.8,23.8v0h126.8l0,0c14.5-0.4,15.1-21.6,1.8-23.8c0-0.1,0-0.1,0-0.2H170.8z M339,326
	c23,16,7.2,48-8.5,48c-10.1,0-16.9-2.4-21.6-6h-35.7c11.1,27,37.6,54,73,54c31.5,0,47.2-32,47.2-48C393.4,342,377.7,326,339,326z
	 M220.3,368c-15.7,16-15.7,48-31.5,64l31.5-16c0,16,0,32,15.7,48c15.7-16,15.7-32,15.7-48l31.5,16c-15.7-16-15.7-48-31.5-64H220.3
	L220.3,368z"/>
</svg>
