<?xml version="1.0" encoding="utf-8"?>
<!-- Generator: Adobe Illustrator 19.1.1, SVG Export Plug-In . SVG Version: 6.00 Build 0)  -->
<svg version="1.1" id="Layer_1" xmlns="http://www.w3.org/2000/svg" xmlns:xlink="http://www.w3.org/1999/xlink" x="0px" y="0px"
	 viewBox="0 0 446.4 434.6" style="enable-background:new 0 0 446.4 434.6;" xml:space="preserve">
<style type="text/css">
	.st0{fill:#ED1C24;}
	.st1{fill:#FFF200;}
	.st2{fill:#603913;}
	.st3{fill:#939598;}
	.st4{fill:#27AAE1;}
	.st5{fill:#FFFFFF;}
	.st6{fill:#00A651;}
	.st7{fill:#EE2A7B;}
	.st8{fill:#1C75BC;}
	.st9{fill:none;}
</style>
<path class="st2" d="M111.3,0l29.6,134.1c4.5,3.6,9.7,4.2,18.1,2l5.2-1.4l3.8,3.8l84.2,84.2l3.8,3.8l-1.3,5.2
	c-2.4,9.4-1.5,15,3.4,19.9l13.5,13.5l97.5-97.6L355.5,154c-3.5-3.5-9.4-4.4-19.7-1.4l-5.3,1.5l-3.9-3.9L240.5,64l-1.6-3.3l-1.1-3.3
	V36.8c0,0,0,0,0-0.1L111.3,0L111.3,0z M289.1,57.9l-14.2,14.2l43.8,43.8l14.2-14.2L289.1,57.9L289.1,57.9z M409.3,153.7l-160,160
	l37.1,37.1l160-160L409.3,153.7L409.3,153.7z M175,172L0,347v87.6l218.8-218.8L175,172z"/>
</svg>
