<?xml version="1.0" encoding="utf-8"?>
<!-- Generator: Adobe Illustrator 19.1.1, SVG Export Plug-In . SVG Version: 6.00 Build 0)  -->
<svg version="1.1" id="Layer_1" xmlns="http://www.w3.org/2000/svg" xmlns:xlink="http://www.w3.org/1999/xlink" x="0px" y="0px"
	 viewBox="0 0 468.3 435.7" style="enable-background:new 0 0 468.3 435.7;" xml:space="preserve">
<style type="text/css">
	.st0{fill:#ED1C24;}
	.st1{fill:#FFF200;}
	.st2{fill:#603913;}
	.st3{fill:#939598;}
	.st4{fill:#27AAE1;}
	.st5{fill:#FFFFFF;}
	.st6{fill:#00A651;}
	.st7{fill:#EE2A7B;}
	.st8{fill:#1C75BC;}
	.st9{fill:none;}
</style>
<g>
	<path class="st7" d="M346.1,0c-41.7,0-78.6,21-100.7,53.1c-4.7,5.8-9,12-13,18.8C167.2-50.8,4.1-5.1,0.1,124.6
		c-4.3,138.2,176.5,173.1,232.4,311.1c42-109.4,161.5-159.3,211.1-240.1c15.4-20.5,24.6-45.9,24.6-73.4c0-17.5-3.8-34.2-10.4-49.3
		c-0.1-0.3-0.2-0.5-0.3-0.8c0-0.1-0.1-0.1-0.1-0.2c-12.7-33.1-38.6-54.9-69.2-64.4l-0.1,0C375,2.6,360.8,0,346.1,0L346.1,0z"/>
	<path class="st5" d="M346.1,25.6c53.5,0,96.5,43.1,96.5,96.5c0,33.7-17.2,63.4-43.3,80.6c14.1-27.5,11.8-67.1-8.7-102.6
		C367,59.1,326.3,36.5,292,42.1C307.4,31.7,326,25.6,346.1,25.6L346.1,25.6z"/>
</g>
</svg>
