<?xml version="1.0" encoding="utf-8"?>
<!-- Generator: Adobe Illustrator 19.1.1, SVG Export Plug-In . SVG Version: 6.00 Build 0)  -->
<svg version="1.1" id="Layer_1" xmlns="http://www.w3.org/2000/svg" xmlns:xlink="http://www.w3.org/1999/xlink" x="0px" y="0px"
	 viewBox="0 0 465.7 478.9" style="enable-background:new 0 0 465.7 478.9;" xml:space="preserve">
<style type="text/css">
	.st0{fill:#ED1C24;}
	.st1{fill:#FFF200;}
	.st2{fill:#603913;}
	.st3{fill:#939598;}
	.st4{fill:#27AAE1;}
	.st5{fill:#FFFFFF;}
	.st6{fill:#00A651;}
	.st7{fill:#EE2A7B;}
	.st8{fill:#1C75BC;}
	.st9{fill:none;}
</style>
<path class="st5" d="M283.5,0L218,21.4l-14.2,67.4l38.8,34.8c-12.7-1.1-25.2-0.1-37.1,2.8l12.2,37.1c-6.2,1.2-12.1,3.2-17.8,5.8
	l-12.2-37.1c-11.5,4.8-22.2,11.5-31.6,19.7l10.7-51L115.8,55L50.3,76.4l-14.2,67.4l51.3,45.9l49.6-16.2c-6.8,9.9-12.1,21-15.7,33
	l38.2,8.1c-1,2.9-1.9,5.9-2.5,9c-0.7,3.1-1.1,6.2-1.4,9.3l-38.2-8.1c-1.6,12.8-1.1,25.4,1.3,37.5l-39.2-35.1l-65.4,21.4L0,315.8
	l51.3,46l65.4-21.4l10.8-51.7c5.3,11.3,12.4,21.7,21,30.8l26.1-29.1c4.1,4.7,8.7,8.9,13.9,12.5l-26,29.1
	c9.6,7.3,20.5,13.2,32.4,17.3l-49.7,16.3L131,432.9l51.3,46l65.4-21.4l14.2-67.3L223,355.3c12.7,1.1,25.1,0.1,37-2.8l-12.1-37
	c6.2-1.2,12.1-3.2,17.8-5.8l12.1,37c11.5-4.8,22.2-11.5,31.7-19.8L298.7,378l51.3,45.9l65.4-21.4l14.2-67.4l-51.3-45.9l-49.7,16.3
	c6.8-9.9,12.2-21,15.8-33.1l-38.1-8c1-2.9,1.9-5.9,2.5-9c0.6-3.1,1.1-6.2,1.3-9.3l38.1,8c1.6-12.8,1.1-25.4-1.3-37.5l39.3,35.2
	l65.4-21.4l14.2-67.3l-51.3-46L349,138.5l-10.9,51.7c-5.3-11.3-12.4-21.7-21-30.8l-26,29c-4.1-4.7-8.8-8.9-13.9-12.5l26-29
	c-9.6-7.3-20.5-13.2-32.3-17.3l49.7-16.3L334.7,46L283.5,0L283.5,0z M219.5,189.4l49.9,13.4l13.4,49.9l-36.5,36.5l-49.9-13.4
	l-13.4-49.9L219.5,189.4L219.5,189.4z"/>
</svg>
