<?xml version="1.0" encoding="utf-8"?>
<!-- Generator: Adobe Illustrator 19.1.1, SVG Export Plug-In . SVG Version: 6.00 Build 0)  -->
<svg version="1.1" id="Layer_1" xmlns="http://www.w3.org/2000/svg" xmlns:xlink="http://www.w3.org/1999/xlink" x="0px" y="0px"
	 viewBox="0 0 466.1 457.8" style="enable-background:new 0 0 466.1 457.8;" xml:space="preserve">
<style type="text/css">
	.st0{fill:#ED1C24;}
	.st1{fill:#FFF200;}
	.st2{fill:#603913;}
	.st3{fill:#939598;}
	.st4{fill:#27AAE1;}
	.st5{fill:#FFFFFF;}
	.st6{fill:#00A651;}
	.st7{fill:#EE2A7B;}
	.st8{fill:#1C75BC;}
	.st9{fill:none;}
</style>
<g>
	<path class="st1" d="M103.8,0.1C93.4,0.5,82.4,3.2,71.6,5.4l62.5,65.6l-21.6,0.2C83,71.4,36.7,77.4,8.9,93.6l31.8,51.6L0,166.2
		v56.6l46.5,26.3L0,289.2v32.3c28.2-1.2,60.6,0.6,89.1-8.9l31.9-10.7l-21.8,25.6c-18.8,22-29.8,55.1-50.7,87.7
		c31.9-2.4,63.4-7.6,96.8-25.8l16-8.7l-9.7,77.1c26.3-12.2,52.1-28.9,71.2-49.1c22.7-23.9,35.7-50.5,33.4-72.7l-0.1-0.8
		c-18.5-12.7-32.3-31.2-39.2-54.2c-8.4-27.8-5.9-62.3,6.6-101.1c-26.4-4-46.5-14.6-57.3-30.1c-12.3-17.7-14.2-39.3-7.7-57
		c6.5-17.8,22.3-32.2,43.4-33.4c20.6-1.2,44.5,10,70,36.1c11.4,4.1,21.7,8,31.1,11.9c2.4-21.4-1.5-38-10.4-52.9
		c-8.4-14-23.2-26.4-41.1-38.6l4.3,42.9l-16.4-11c-37-24.7-90.4-49.8-135.5-47.7V0.1L103.8,0.1z"/>
	<path class="st1" d="M204.2,78.1c-0.4,0-0.9,0-1.3,0h0c-13.5,0.8-22.5,9.1-26.9,21.1c-4.4,12-3.2,27.4,5.5,39.9
		c8.8,12.6,25.1,23.2,53.5,24.8l12.6,0.7l-4.3,11.8c-14.8,40.5-16.2,73.9-8.6,99.2c7.7,25.3,24,42.8,47.3,52.6h0l108.6,38.5
		c5.6-11.9,11.7-23.8,18-35.7c-5,2.2-10.5,3.4-16.3,3.4c-22.5,0-40.8-18.3-40.8-40.8c0-22.5,18.3-40.8,40.8-40.8
		c20.7,0,37.7,15.4,40.4,35.3c10.7-18.1,21.9-36,33.5-53.7l-103.2-52.4l-4.7-5.7c-3.9-13.6-11.5-23.3-26.4-33.3
		c-14.9-10-37-19.6-67.8-30.6l-2.1-0.8l-1.5-1.6C237.1,85.5,217.7,77.7,204.2,78.1L204.2,78.1z"/>
	<path class="st0" d="M323.2,168c8.3,0,14.7,6.4,14.7,14.7c0,8.3-6.4,14.7-14.7,14.7c-8.3,0-14.7-6.4-14.7-14.7
		C308.5,174.4,314.9,168,323.2,168L323.2,168z"/>
</g>
</svg>
