<?xml version="1.0" encoding="utf-8"?>
<!-- Generator: Adobe Illustrator 19.1.1, SVG Export Plug-In . SVG Version: 6.00 Build 0)  -->
<svg version="1.1" id="Layer_1" xmlns="http://www.w3.org/2000/svg" xmlns:xlink="http://www.w3.org/1999/xlink" x="0px" y="0px"
	 viewBox="0 0 566.5 511.1" style="enable-background:new 0 0 566.5 511.1;" xml:space="preserve">
<style type="text/css">
	.st0{fill:#ED1C24;}
	.st1{fill:#FFF200;}
	.st2{fill:#603913;}
	.st3{fill:#939598;}
	.st4{fill:#27AAE1;}
	.st5{fill:#FFFFFF;}
	.st6{fill:#00A651;}
	.st7{fill:#EE2A7B;}
	.st8{fill:#1C75BC;}
	.st9{fill:none;}
</style>
<path class="st2" d="M214.9,0l-18.8,51.9L139,31.8L184.1,84c-25.6,18.6-45.8,44.1-57.8,73.9c-10.5-4.1-21.9-6.4-33.8-6.4
	c-0.8,0-1.6,0-2.4,0C40.1,152.7,0,193.7,0,244.1c0,51.2,41.4,92.7,92.4,92.7c22.7,0,43.4-8.2,59.5-21.8c8.6,7.9,18.5,14.7,29.4,20.3
	c-15.1,19.9-24.6,44.3-26,70.9c6.2,6.7,15.4,13.3,27.8,19.1c24.9,11.7,60.6,19.3,100.2,19.3c39.5,0,75.3-7.7,100.2-19.3
	c12.4-5.8,21.7-12.4,27.8-19.1c-1.4-26.6-10.9-51-26-70.9c10.9-5.6,20.7-12.4,29.3-20.3c16.1,13.6,36.9,21.8,59.6,21.8
	c51,0,92.4-41.5,92.4-92.7c0-51.2-41.4-92.7-92.4-92.7c-0.8,0-1.6,0-2.4,0c-11.1,0.3-21.7,2.5-31.5,6.4
	c-7.5-18.5-18.2-35.5-31.4-50.1l36.4-7.8l-75.3-24.7l23.4-33.7l-79.1,13.1c-10-1.9-20.4-2.8-31-2.8c-16.1,0-31.6,2.3-46.4,6.5
	L214.9,0z M91.4,175.8c9.3,0,18.6,1.9,27.3,5.7c-1.6,6.5-2.8,13.1-3.6,19.9c-18.5-10.5-42.3-7.8-58.1,8.1c-19,19.1-19,49.9,0,69
	c19,19,49.4,19.1,68.5,0.2c2.8,6.2,6.2,11.9,9.9,17.3c-26.7,22.8-67,21.5-92.2-3.7c-26.5-26.6-26.5-70,0-96.5
	C56.5,182.5,73.9,175.8,91.4,175.8L91.4,175.8z M475.1,175.8c17.4,0,34.9,6.7,48.1,19.9c26.5,26.6,26.5,70,0,96.5
	c-25.2,25.3-65.5,26.5-92.2,3.7c3.8-5.4,7.1-11.2,9.9-17.3c19.1,19,49.5,18.9,68.5-0.1c19-19.1,19-49.9,0-69
	c-15.8-15.9-39.6-18.6-58.1-8.1c-0.8-6.8-2-13.4-3.6-19.9C456.5,177.8,465.8,175.8,475.1,175.8L475.1,175.8z M209.4,195.4
	c24.8,0,44.9,20.1,44.9,45c0,24.8-20.1,45-44.9,45c-24.8,0-44.9-20.2-44.9-45C164.6,215.5,184.7,195.4,209.4,195.4L209.4,195.4z
	 M358.9,199.1c23.8,0,43,19.3,43,43.2s-19.3,43.2-43,43.2c-23.8,0-43.1-19.3-43.1-43.2C315.8,218.4,335.1,199.1,358.9,199.1
	L358.9,199.1z M250.4,293.5l21.4,5.9l-11.6,42.3l-21.4-5.9L250.4,293.5z M316.1,293.5l11.6,42.3l-21.4,5.9l-11.6-42.3L316.1,293.5z
	 M409.1,436.5c-5,3.2-10.5,6.2-16.2,8.9c-28.8,13.5-67.3,21.5-109.6,21.5c-42.4,0-80.8-7.9-109.6-21.5c-5.7-2.7-11.2-5.6-16.2-8.9
	c11.5,53.6,63.4,74.5,125.8,74.5C345.6,511.1,397.6,490.1,409.1,436.5L409.1,436.5z"/>
</svg>
