<?xml version="1.0" encoding="utf-8"?>
<!-- Generator: Adobe Illustrator 19.1.1, SVG Export Plug-In . SVG Version: 6.00 Build 0)  -->
<svg version="1.1" id="Layer_1" xmlns="http://www.w3.org/2000/svg" xmlns:xlink="http://www.w3.org/1999/xlink" x="0px" y="0px"
	 viewBox="0 0 476.7 476.7" style="enable-background:new 0 0 476.7 476.7;" xml:space="preserve">
<style type="text/css">
	.st0{fill:#ED1C24;}
	.st1{fill:#FFF200;}
	.st2{fill:#603913;}
	.st3{fill:#939598;}
	.st4{fill:#27AAE1;}
	.st5{fill:#FFFFFF;}
	.st6{fill:#00A651;}
	.st7{fill:#EE2A7B;}
	.st8{fill:#1C75BC;}
	.st9{fill:none;}
</style>
<g>
	<path class="st3" d="M238.4,0C106.8,0,0,106.8,0,238.3s106.8,238.4,238.4,238.4s238.3-106.8,238.3-238.4
		C476.7,106.8,369.9,0,238.4,0z M305.9,390.7c5.8,0,11.5-0.3,17.1-0.9c-30.5,21.9-68,34.8-108.5,34.8c-103,0-186.3-83.3-186.3-186.3
		c0-103,83.3-186.3,186.3-186.3c40.5,0,78,12.9,108.5,34.8c-5.6-0.6-11.3-1-17.1-1c-84.2,0-152.4,68.2-152.4,152.4
		C153.5,322.5,221.8,390.7,305.9,390.7z"/>
	<path class="st5" d="M305.9,390.7c5.8,0,11.5-0.3,17.1-0.9c-30.5,21.9-68,34.8-108.5,34.8c-103,0-186.3-83.3-186.3-186.3
		c0-103,83.3-186.3,186.3-186.3c40.5,0,78,12.9,108.5,34.8c-5.6-0.6-11.3-1-17.1-1c-84.2,0-152.4,68.2-152.4,152.4
		C153.5,322.5,221.8,390.7,305.9,390.7z"/>
</g>
</svg>
