<?xml version="1.0" encoding="utf-8"?>
<!-- Generator: Adobe Illustrator 19.1.1, SVG Export Plug-In . SVG Version: 6.00 Build 0)  -->
<svg version="1.1" id="Layer_1" xmlns="http://www.w3.org/2000/svg" xmlns:xlink="http://www.w3.org/1999/xlink" x="0px" y="0px"
	 viewBox="0 0 472.9 472.2" style="enable-background:new 0 0 472.9 472.2;" xml:space="preserve">
<style type="text/css">
	.st0{fill:#ED1C24;}
	.st1{fill:#FFF200;}
	.st2{fill:#603913;}
	.st3{fill:#939598;}
	.st4{fill:#27AAE1;}
	.st5{fill:#FFFFFF;}
	.st6{fill:#00A651;}
	.st7{fill:#EE2A7B;}
	.st8{fill:#1C75BC;}
	.st9{fill:none;}
</style>
<path d="M99.7,0l0.4,16.6l2.9,136.6h0.1c26.1,0,47.3,21.2,47.3,47.3c0,26.1-21.2,47.3-47.3,47.3c-8.6,0-16.6-2.3-23.6-6.3L8.7,358.1
	L0,372.2l17.5-0.2l132.1-3c0-0.2,0-0.4,0-0.6c0-26.1,21.2-47.3,47.3-47.3s47.3,21.2,47.3,47.3c0,8-2,15.6-5.6,22.2L358,463.3
	l15.1,8.9l-0.4-16.6l-2.9-128.9c-1.2,0.1-2.5,0.2-3.8,0.2c-26.1,0-47.3-21.2-47.3-47.3c0-26.1,21.2-47.3,47.3-47.3
	c8.4,0,16.2,2.2,23,6l75.2-124l8.7-14.2l-17.5,0.2l-136.1,3.1c0,0.3,0,0.6,0,0.8c0,26.1-21.2,47.3-47.3,47.3
	c-26.1,0-47.3-21.2-47.3-47.3c0-8.9,2.4-17.2,6.7-24.3L114.8,8.9L99.7,0z M119,33.3l17.1,10.4l64,110.9c-3,1.3-6,2.8-8.9,4.5
	c-2.6,1.5-5,3.1-7.3,4.8L119.4,52.3L119,33.3L119,33.3z M439.6,119.2l-9.8,16.1l-112.3,64.8c-1.3-2.9-2.7-5.7-4.3-8.4
	c-1.6-2.7-3.2-5.3-5-7.8l111.4-64.3L439.6,119.2L439.6,119.2z M235.4,170.4c0.7,0,1.5,0,2.2,0c22.5,0.3,44.2,11.7,56.2,32.5
	c18.3,31.7,6.6,72.1-25.1,90.4c-31.7,18.3-71.5,7.7-89.8-24.1c-18.3-31.7-7.7-71.5,24.1-89.8C213.2,173.6,224.3,170.6,235.4,170.4
	L235.4,170.4z M155.3,272.2c1.3,2.8,2.7,5.5,4.2,8.3c1.6,2.8,3.3,5.4,5.2,7.9L53.6,352.5L33.3,353l9.7-15.9L155.3,272.2L155.3,272.2
	z M288.8,308.3l64.6,112l0.4,18.7l-17.3-10.6l-63.9-110.6c2.6-1.2,5.2-2.5,7.8-4C283.4,312.1,286.2,310.2,288.8,308.3L288.8,308.3z"
	/>
</svg>
