<?xml version="1.0" encoding="utf-8"?>
<!-- Generator: Adobe Illustrator 19.1.1, SVG Export Plug-In . SVG Version: 6.00 Build 0)  -->
<svg version="1.1" id="Layer_1" xmlns="http://www.w3.org/2000/svg" xmlns:xlink="http://www.w3.org/1999/xlink" x="0px" y="0px"
	 viewBox="0 0 486.4 477.8" style="enable-background:new 0 0 486.4 477.8;" xml:space="preserve">
<style type="text/css">
	.st0{fill:#ED1C24;}
	.st1{fill:#FFF200;}
	.st2{fill:#603913;}
	.st3{fill:#939598;}
	.st4{fill:#27AAE1;}
	.st5{fill:#FFFFFF;}
	.st6{fill:#00A651;}
	.st7{fill:#EE2A7B;}
	.st8{fill:#1C75BC;}
	.st9{fill:none;}
</style>
<path class="st8" d="M135.5,0C21-0.6-4.4,185,156.1,212.1c-29.5,0.5-55.4,8.1-91.8,26C-33.9,286.3-14.1,443,86.1,426
	c34.5-5.8,51.2-50.3,0.9-65.4c16.5,29.6-28,47.1-41.9,1.9c-11.3-36.5,21.1-74.9,52.5-85c30.5-9.8,55.2-10.9,82.5-5.8
	c-36.6,34.2-56.5,80.5-42.4,123.6c44.5,135.6,192.1,82.5,162.8-6.7c-10.3-31.5-41.4-46.5-68-10.2c35.2-8.9,50.5,38.8,18.2,49.3
	c-26.4,8.7-60.2-13.5-66-41.3c-7.8-37.4,19.8-77.2,54.8-95.3c22.2,35.4,38.8,48.7,83.2,72.2c85.8,45.4,213-36.5,143.9-110.5
	c-22.6-24.2-54.6-30-67.5,13.1c30.2-20.1,60.7,26.8,33.9,47.6c-22,17-61.5,19.1-86.4,5.5c-30.8-16.8-53.8-37.8-70.2-66.5
	c57.1,13.7,119.6-1.1,143-45.3c45.7-86.4-7-152.5-59.1-153.4c-20.4-0.4-40.7,9.2-54.9,31.5c-17.9,27.9-9.8,61.5,35.2,59.1
	c-29.1-21.6-1.9-63.6,26.7-45.3c23.4,14.9,22.5,51.9,9.8,77.3c-15.2,30.2-60.6,50.7-95.1,24.7c-3-5.7-5.6-11.7-7.8-17.8
	c9-6.5,14.9-17,14.9-28.9c0-17.8-13.3-32.6-30.3-35.2C248.9,72,235.3,26.5,173.8,6.5C160.2,2.1,147.4,0.1,135.5,0L135.5,0z
	 M253.4,137.4c9.5,0,16.9,7.5,16.9,16.9c0,9.5-7.5,16.9-16.9,16.9s-16.9-7.5-16.9-16.9C236.5,144.9,243.9,137.4,253.4,137.4
	L253.4,137.4z M188,147.9c9.5,0,16.9,7.5,16.9,16.9c0,9.5-7.5,16.9-16.9,16.9c-9.5,0-16.9-7.5-16.9-16.9
	C171,155.4,178.5,147.9,188,147.9z"/>
</svg>
