<?xml version="1.0" encoding="utf-8"?>
<!-- Generator: Adobe Illustrator 19.1.1, SVG Export Plug-In . SVG Version: 6.00 Build 0)  -->
<svg version="1.1" id="Layer_1" xmlns="http://www.w3.org/2000/svg" xmlns:xlink="http://www.w3.org/1999/xlink" x="0px" y="0px"
	 viewBox="0 0 467.2 463.1" style="enable-background:new 0 0 467.2 463.1;" xml:space="preserve">
<style type="text/css">
	.st0{fill:#ED1C24;}
	.st1{fill:#FFF200;}
	.st2{fill:#603913;}
	.st3{fill:#939598;}
	.st4{fill:#27AAE1;}
	.st5{fill:#FFFFFF;}
	.st6{fill:#00A651;}
	.st7{fill:#EE2A7B;}
	.st8{fill:#1C75BC;}
	.st9{fill:none;}
</style>
<path d="M277.1,0C213.3,0.4,141.3,14.7,71,32.9c-3.5,34.1,2.2,68.9,14,104.3c76.5-86.6,289-117.7,382.1-34.5
	C436.5,25.1,364.5-0.5,277.1,0L277.1,0z M46.1,36L8.3,45.6c5.6,78,28.5,132.4,60.4,174.5C52.2,230.4,28.1,239.7,0,246.9
	c5.7,6.6,14.3,16.2,30.5,18.5c24.8-4.3,39.9-15,53.8-26.6c76.2,85.1,190.2,119,253.1,224.2l49.4-0.1C271.4,249.9,61.4,339.4,46.1,36
	L46.1,36z"/>
</svg>
