<?xml version="1.0" encoding="utf-8"?>
<!-- Generator: Adobe Illustrator 19.1.1, SVG Export Plug-In . SVG Version: 6.00 Build 0)  -->
<svg version="1.1" id="Layer_1" xmlns="http://www.w3.org/2000/svg" xmlns:xlink="http://www.w3.org/1999/xlink" x="0px" y="0px"
	 viewBox="0 0 1494.8 1776.3" style="enable-background:new 0 0 1494.8 1776.3;" xml:space="preserve">
<style type="text/css">
	.st0{fill:#F7941E;}
	.st1{fill:#FFF200;stroke:#000000;stroke-width:30;stroke-linejoin:round;stroke-miterlimit:10;}
	.st2{fill:#ED1C24;stroke:#000000;stroke-width:30;stroke-miterlimit:10;}
	.st3{fill:#FFF200;stroke:#000000;stroke-width:30;stroke-miterlimit:10;}
	.st4{fill:#ED1C24;stroke:#000000;stroke-width:30;stroke-linejoin:round;stroke-miterlimit:10;}
</style>
<g>
	<path class="st0" d="M747.4-61.8v847.1H-46.9c0-2.8,0-5.6,0-8.4V-61.8H747.4z"/>
	<path class="st0" d="M1541.8-61.8v838.7c0,2.8,0,5.6,0,8.4H747.4V-61.8H1541.8z"/>
	<path class="st0" d="M1541.8,785.2c-3.9,596.4-424.3,1052.9-794.2,1052.9c0,0-0.1,0-0.1,0h0V785.2H1541.8z"/>
	<path class="st0" d="M747.4,785.2v1052.9c0,0-0.1,0-0.1,0c-369.9,0-790.3-456.5-794.2-1052.9H747.4z"/>
</g>
<g>
	<path class="st1" d="M1476.9,785.2c0,551.4-388.1,974.6-729.4,974.6c0,0-0.1,0-0.1,0V785.3L1476.9,785.2z"/>
	<rect x="747.4" y="15" class="st2" width="729.5" height="770.2"/>
	<rect x="17.9" y="15" class="st3" width="729.5" height="770.2"/>
	<path class="st4" d="M17.9,785.2c0,551.4,388.1,974.6,729.4,974.6c0,0,0.1,0,0.1,0V785.3L17.9,785.2z"/>
</g>
</svg>
