<?xml version="1.0" encoding="utf-8"?>
<!-- Generator: Adobe Illustrator 19.1.1, SVG Export Plug-In . SVG Version: 6.00 Build 0)  -->
<svg version="1.1" id="Layer_1" xmlns="http://www.w3.org/2000/svg" xmlns:xlink="http://www.w3.org/1999/xlink" x="0px" y="0px"
	 viewBox="0 0 409 472.2" style="enable-background:new 0 0 409 472.2;" xml:space="preserve">
<style type="text/css">
	.st0{fill:#ED1C24;}
	.st1{fill:#FFF200;}
	.st2{fill:#603913;}
	.st3{fill:#939598;}
	.st4{fill:#27AAE1;}
	.st5{fill:#FFFFFF;}
	.st6{fill:#00A651;}
	.st7{fill:#EE2A7B;}
	.st8{fill:#1C75BC;}
	.st9{fill:none;}
</style>
<g>
	<polygon class="st4" points="0,118 57.4,217.5 78.8,180.4 72.8,170.2 64.6,156.2 80.9,156.2 228.9,156.1 203.6,112.3 203.1,113.3 
		200.4,118 195,117.9 136.3,117.9 136.3,118 	"/>
	<polygon class="st4" points="204.5,0 147.1,99.3 189.5,99.3 195.5,89 203.6,74.9 211.7,89 285.4,216.5 310.2,173.5 309.6,173.5 
		304.6,173.2 302,168.8 272.7,118 242.3,65.5 219.4,25.8 	"/>
	<polygon class="st4" points="97.1,174.8 100.3,180.4 97.6,185.1 15.1,328.1 15.1,328.1 0,354.2 114.8,354.2 93.2,316.6 81,316.8 
		64.5,317.1 72.7,302.8 146.6,174.8 97.1,174.8 	"/>
	<polygon class="st4" points="294.2,118.1 315.6,155 326.4,155.6 341.7,156.3 334.1,169.6 259.5,298.8 311.2,298.8 308,293.2 
		310.7,288.5 340.9,236.2 340.8,236.1 409,118 294.2,118.1 	"/>
	<polygon class="st4" points="122.3,254.2 97.2,297.8 98.4,297.8 104,297.7 106.7,302.5 142.2,364.4 204.5,472.2 261.7,373.1 
		219.1,373.1 213.1,383.4 205.1,397.5 197,383.4 122.3,254.2 	"/>
	<polygon class="st4" points="180.4,317.5 205,360 205.5,359.1 208.2,354.5 213.6,354.4 272.5,354.4 272.6,354.2 408.9,354.2 
		351.7,254.9 329.6,293.2 335.5,303.4 343.7,317.5 327.5,317.4 180.5,317.5 	"/>
</g>
</svg>
