<?xml version="1.0" encoding="utf-8"?>
<!-- Generator: Adobe Illustrator 19.1.1, SVG Export Plug-In . SVG Version: 6.00 Build 0)  -->
<svg version="1.1" id="Layer_1" xmlns="http://www.w3.org/2000/svg" xmlns:xlink="http://www.w3.org/1999/xlink" x="0px" y="0px"
	 viewBox="0 0 357.4 470.9" style="enable-background:new 0 0 357.4 470.9;" xml:space="preserve">
<style type="text/css">
	.st0{fill:#414042;}
	.st1{fill:#58595B;}
	.st2{fill:url(#SVGID_1_);}
</style>
<g>
	<rect x="55.2" y="32.2" width="252" height="438.7"/>
	<polygon points="357.4,267.5 357.4,301.8 340,301.8 340,320.5 17.4,320.5 17.4,301.8 0,301.8 0,267.5 34.5,267.5 34.5,248.8 
		322.9,248.8 322.9,267.5 	"/>
	<rect x="66.1" y="335.8" class="st0" width="225.1" height="135.2"/>
	<polygon class="st0" points="177.7,0 84.7,32.1 84.7,248.8 102.2,248.8 102.2,283.9 255.2,283.9 255.2,248.8 272.7,248.8 
		272.7,32.2 177.7,0 	"/>
	<rect x="34.5" y="9.2" class="st0" width="31.5" height="258.3"/>
	<rect x="291.4" y="9.2" class="st0" width="31.5" height="258.3"/>
	<polygon class="st1" points="125.8,38 156.8,71.9 179,38.6 201.2,71.9 229.8,40.4 218.1,104 138.1,104 125.8,38 	"/>
	<rect y="267.5" class="st1" width="83.5" height="34.3"/>
	<rect x="273.8" y="267.5" class="st1" width="83.5" height="34.3"/>
	<linearGradient id="SVGID_1_" gradientUnits="userSpaceOnUse" x1="178.77" y1="335.69" x2="178.77" y2="302.594">
		<stop  offset="0" style="stop-color:#58595B"/>
		<stop  offset="0.4355" style="stop-color:#414042"/>
		<stop  offset="1" style="stop-color:#000000"/>
	</linearGradient>
	<polygon class="st2" points="102.2,302.6 66.1,320.5 66.1,335.7 291.4,335.7 291.4,320.5 255.2,302.6 102.2,302.6 	"/>
	<rect x="17.4" y="287.2" class="st1" width="48.7" height="183.7"/>
	<rect x="291.3" y="288.7" class="st1" width="48.7" height="182.2"/>
	<rect x="84.8" y="354.4" class="st1" width="187.8" height="97.2"/>
</g>
</svg>
