<?xml version="1.0" encoding="utf-8"?>
<!-- Generator: Adobe Illustrator 19.1.1, SVG Export Plug-In . SVG Version: 6.00 Build 0)  -->
<svg version="1.1" id="Layer_1" xmlns="http://www.w3.org/2000/svg" xmlns:xlink="http://www.w3.org/1999/xlink" x="0px" y="0px"
	 viewBox="0 0 467.3 467.3" style="enable-background:new 0 0 467.3 467.3;" xml:space="preserve">
<style type="text/css">
	.st0{fill:#ED1C24;}
	.st1{fill:#FFF200;}
	.st2{fill:#603913;}
	.st3{fill:#939598;}
	.st4{fill:#27AAE1;}
	.st5{fill:#FFFFFF;}
	.st6{fill:#00A651;}
	.st7{fill:#EE2A7B;}
	.st8{fill:#1C75BC;}
	.st9{fill:none;}
</style>
<g>
	<path class="st1" d="M295.4,0c-72.3,14.6-19.2,71.7-74.3,108.8c4.8-0.5,9.7-0.7,14.7-0.6c16.3,0.3,32.8,3.7,48.6,10.7
		c5,2.2,9.7,4.7,14.3,7.4C310.6,78.8,261.4,29.9,295.4,0L295.4,0z"/>
	<path class="st1" d="M112.1,24.7c-40.8,61.4,37,64.3,24.4,129.4c17.4-21.3,41.2-35.9,67.2-42.3C178.6,69.7,109.2,69.9,112.1,24.7
		L112.1,24.7z"/>
	<path class="st1" d="M409.4,100.2c-32.5,0.9-45.5,46.3-96.6,36.2c21.4,17.4,36,41.3,42.5,67.3c42.3-24.9,42.1-94.5,87.3-91.6
		C429.1,103.1,418.5,99.9,409.4,100.2L409.4,100.2z"/>
	<path class="st1" d="M231.4,126.8c-23.7,0.5-46.5,8.8-64.9,23.6l18.7,36.2l-39.8-13.2c-3.6,5.3-6.7,10.9-9.4,16.9
		c-8.7,19.7-11,40.6-7.8,60.3l44.8,2.1l-34,30.3c10.8,20.6,28.4,37.9,51.4,48c3.1,1.4,6.2,2.6,9.3,3.6l24.5-38.3l9.1,43.8
		c27.3,0.1,53.7-10.4,73.6-29.2l-19.2-37.1l38.4,12.7c1.8-3.2,3.5-6.5,5-9.9c9.7-22,11.5-45.5,6.4-67.2l-37.6-1.8l27.7-24.7
		c-10.8-20.2-28.2-37.1-50.9-47.1c-1.4-0.6-2.7-1.2-4.1-1.7l-25.9,40.3l-9.9-47.8c-0.5,0-1,0-1.5,0
		C234,126.8,232.7,126.8,231.4,126.8L231.4,126.8z"/>
	<path class="st1" d="M108.7,166.8c-41.7,0.7-82.5,34.8-108.7,5.1c14.6,72.2,71.7,19.3,108.8,74.3c-2.2-21,0.9-42.8,10.1-63.4
		c2.2-4.9,4.6-9.6,7.3-14.1C120.4,167.2,114.5,166.7,108.7,166.8L108.7,166.8z"/>
	<path class="st1" d="M358.2,220.7c2.2,21-0.9,42.9-10,63.6l-0.2,0.4c-2.1,4.8-4.6,9.4-7.2,13.8c47.5,12.2,96.5-37.1,126.5-3.2
		C452.6,223,395.3,276.3,358.2,220.7L358.2,220.7z"/>
	<path class="st1" d="M111.8,263.7c-42.1,25-41.9,94.4-87.1,91.5c61.4,40.8,64.3-37.1,129.6-24.3C133,313.5,118.3,289.7,111.8,263.7
		L111.8,263.7z"/>
	<path class="st1" d="M330.9,312.6c-17.4,21.5-41.2,36.2-67.3,42.7c24.9,42.3,94.5,42,91.7,87.2C396.1,381,317.8,378.2,330.9,312.6
		L330.9,312.6z"/>
	<path class="st1" d="M168.7,341c-12,47.5,37.1,96.3,3.2,126.3c72.3-14.6,19.2-71.8,74.5-108.9c-21,2.2-42.9-0.9-63.6-10.1
		C177.9,346.1,173.2,343.7,168.7,341L168.7,341z"/>
</g>
</svg>
