<?xml version="1.0" encoding="utf-8"?>
<!-- Generator: Adobe Illustrator 18.0.0, SVG Export Plug-In . SVG Version: 6.00 Build 0)  -->
<!DOCTYPE svg PUBLIC "-//W3C//DTD SVG 1.1//EN" "http://www.w3.org/Graphics/SVG/1.1/DTD/svg11.dtd">
<svg version="1.1" id="Layer_1" xmlns="http://www.w3.org/2000/svg" xmlns:xlink="http://www.w3.org/1999/xlink" x="0px" y="0px"
	 viewBox="0 0 612 792" enable-background="new 0 0 612 792" xml:space="preserve">
<g>
	<path fill="#FFFFFF" d="M305.5,115.3l-111.2,38.3v259.1h21v41.9H398v-41.9h21l0-258.9L305.5,115.3L305.5,115.3z M134.3,126.2v286.5
		h37.6V126.2L134.3,126.2L134.3,126.2z M441.4,126.2v286.5H479V126.2L441.4,126.2L441.4,126.2z M243.5,160.7l37,40.5l26.5-39.8
		l26.6,39.8l34.2-37.7l-14,76.1h-95.6L243.5,160.7L243.5,160.7z M93,435v41h99.8v-41C192.9,435,93,435,93,435z M420.4,435v41h99.8
		v-41H420.4z M215.2,476.9v21.4h-20.8v18.2l224.4,0v-18.2H398v-21.4L215.2,476.9L215.2,476.9z M113.9,498.3v179.9l58.2,0V498.3
		L113.9,498.3L113.9,498.3z M441.2,498.3v179.9l58.2,0l0-179.9L441.2,498.3L441.2,498.3z M194.4,538.8V655h224.4V538.8H194.4z"/>
	<path d="M305.5,115.3L305.5,115.3L419,153.8l0,258.9h-21v41.9H215.2v-41.9h-21V153.6L305.5,115.3 M243.5,160.7l14.6,78.9h95.6
		l14-76.1l-34.2,37.7L307,161.4l-26.5,39.8L243.5,160.7L243.5,160.7L243.5,160.7 M479,126.2v286.5h-37.6V126.2v0H479 M171.9,126.2
		v286.5h-37.6V126.2v0H171.9 M520.2,435v41h-99.8v-41H520.2 M192.9,435v41H93v-41H192.9 M215.2,476.9L215.2,476.9L215.2,476.9
		 M398,476.9v21.4h20.8v18.2l-224.4,0v-18.2h20.8l0-21.4H398 M499.4,498.3l0,179.9l-58.2,0V498.3v0H499.4 M113.9,498.3L113.9,498.3
		l58.2,0v179.9l-58.2,0V498.3 M418.8,538.8V655H194.4V538.8H418.8 M306,88l-108.1,36.8v-24.6h-26h-37.6h-26v26V409H93H67v26v41v26
		h20.8v176.2v26l26,0l58.2,0l26,0V681h217.1v23.2l26,0l58.2,0l26,0l0-26l0-176.2h20.8v-26v-41v-26h-26H505V126.2v-26h-26h-37.6h-26
		v24.9l-61.9-21L306,88z"/>
</g>
</svg>
