<?xml version="1.0" encoding="utf-8"?>
<!-- Generator: Adobe Illustrator 19.1.1, SVG Export Plug-In . SVG Version: 6.00 Build 0)  -->
<svg version="1.1" id="Layer_1" xmlns="http://www.w3.org/2000/svg" xmlns:xlink="http://www.w3.org/1999/xlink" x="0px" y="0px"
	 viewBox="0 0 477.6 477.4" style="enable-background:new 0 0 477.6 477.4;" xml:space="preserve">
<style type="text/css">
	.st0{fill:#ED1C24;}
	.st1{fill:#FFF200;}
	.st2{fill:#603913;}
	.st3{fill:#939598;}
	.st4{fill:#27AAE1;}
	.st5{fill:#FFFFFF;}
	.st6{fill:#00A651;}
	.st7{fill:#EE2A7B;}
	.st8{fill:#1C75BC;}
	.st9{fill:none;}
</style>
<path class="st8" d="M0,477.4h41.7l176.1-175.6l51.4,51.4l12,12l11.4-11.4l106.7-106.7l24.5,24.5l53.8-125.8l-125.7,53.9l23.4,23.4
	l-94.7,94.7l-48.4-48.4l135.8-135.8l23.9,24l53.9-125.7L320,85.8l24,24L208.2,245.5l-48.5-48.5l94.7-94.7l23.4,23.4L331.7,0
	L206,53.9l24.5,24.5L123.8,185.1l-11.4,11.4l12,12l51.4,51.5L0,435.8L0,477.4L0,477.4z"/>
</svg>
