<?xml version="1.0" encoding="utf-8"?>
<!-- Generator: Adobe Illustrator 19.1.1, SVG Export Plug-In . SVG Version: 6.00 Build 0)  -->
<svg version="1.1" id="Layer_1" xmlns="http://www.w3.org/2000/svg" xmlns:xlink="http://www.w3.org/1999/xlink" x="0px" y="0px"
	 viewBox="0 0 476 474" style="enable-background:new 0 0 476 474;" xml:space="preserve">
<style type="text/css">
	.st0{fill:#ED1C24;}
	.st1{fill:#FFF200;}
	.st2{fill:#603913;}
	.st3{fill:#939598;}
	.st4{fill:#27AAE1;}
	.st5{fill:#FFFFFF;}
	.st6{fill:#00A651;}
	.st7{fill:#EE2A7B;}
	.st8{fill:#1C75BC;}
	.st9{fill:none;}
</style>
<g>
	<path class="st7" d="M476,0L286.9,123.4c16.5,14.6,32.7,22.6,45,37L476,0z"/>
	<path class="st5" d="M280.3,73.6c-12.6,0.4-26.6,5-38,11.8c-7.6,4.5-14.1,10-18.3,15.1c-4.2,5.2-5.8,9.8-5.6,12.7l0.3,5.7l-5.1,2.7
		C115.7,173.2,62.9,230.7,0,290.6V474h166c6.1-15.4,12.7-33.9,15.1-47.5c1.7-10-2.8-21.8-8.2-35.2c-5.4-13.4-11.9-28.7-7.6-45.4
		c3.5-13.8,14.4-25.8,24.1-35.7c4.4-4.5,8.7-8.5,12.1-11.4c-6.6-8.6-14.1-20.3-16.5-34.9l17.8-3c2.7,16,15.2,28.5,22.8,39.2
		l-0.3,0.2c10.5,14.6,18.9,28.4,30.7,37.5c13.4,10.3,31.5,16.4,66.5,11.5l6.7-0.9l2.8,6.1c7,15.3,14.4,23.9,21,28.4
		c6.6,4.5,12.6,5.5,18.7,4.8c12.1-1.3,24.3-11,27.8-14.3c4.1-3.9,9.7-9.5,13.3-16.1c3.3-6.1,5.1-12.7,3.5-20.7
		C373.4,299,346.5,227.9,325.9,184c-9.2-19.6-35.8-34.5-53-47.9c-2.4-1.4-2.7-2.6-3.2-5.2c-4.2-19.2,3.2-40.3,11-57.3
		C280.5,73.6,280.4,73.6,280.3,73.6L280.3,73.6z"/>
	<path class="st7" d="M41.4,116.5c17.9,4.9,37.8,9.7,57.4,14.8c14.8,3.9,29.3,7.9,42.4,12.8c17.9-12.2,37.4-24.1,59.1-35.8
		C148.6,95.1,90.3,105.2,41.4,116.5L41.4,116.5z"/>
	<path class="st7" d="M70.1,142.7c-23,4.1-46,10.3-67.1,16.7c18.1,3.8,38.3,7.3,58.2,11.2c11.8,2.3,23.3,4.8,34.3,7.6
		c9-7.3,18.1-14.3,27.4-21.1c-9-2.9-18.7-5.7-28.6-8.3C86.2,146.7,78.1,144.7,70.1,142.7L70.1,142.7z"/>
	<path class="st7" d="M29.4,182.9c-9.9,2.1-19.7,4.6-29.4,7.3v18c6.7,1,13.5,2.1,20.2,3.1c10.5,1.7,20.8,3.5,30.7,5.6
		c8.8-8.2,17.9-16.3,27.3-24.4c-6.6-1.6-13.5-3-20.5-4.4C48.3,186.4,38.9,184.7,29.4,182.9L29.4,182.9z"/>
	<circle class="st7" cx="286" cy="220" r="16"/>
	<path class="st7" d="M0,226.5v26.6c4.2,0.2,8.3,0.4,12.3,0.7c7.4-7.2,14.9-14.4,22.4-21.5c-5.8-1.1-11.6-2.1-17.4-3.1
		C11.5,228.3,5.8,227.4,0,226.5z"/>
</g>
</svg>
