<?xml version="1.0" encoding="utf-8"?>
<!-- Generator: Adobe Illustrator 19.1.1, SVG Export Plug-In . SVG Version: 6.00 Build 0)  -->
<svg version="1.1" id="Layer_1" xmlns="http://www.w3.org/2000/svg" xmlns:xlink="http://www.w3.org/1999/xlink" x="0px" y="0px"
	 viewBox="0 0 472.5 469.8" style="enable-background:new 0 0 472.5 469.8;" xml:space="preserve">
<style type="text/css">
	.st0{fill:#ED1C24;}
	.st1{fill:#FFF200;}
	.st2{fill:#603913;}
	.st3{fill:#939598;}
	.st4{fill:#27AAE1;}
	.st5{fill:#FFFFFF;}
	.st6{fill:#00A651;}
	.st7{fill:#EE2A7B;}
	.st8{fill:#1C75BC;}
	.st9{fill:none;}
</style>
<g>
	<path class="st5" d="M232,0c-57.1,45.2-80.7,37.8-100.3,0.2c16.6,61.5,10.4,66.4-44.7,116.6c67.3-35.7,96.2-34.2,131,7.2
		C183,70.9,187,48.7,232,0L232,0z"/>
	<path class="st7" d="M250.4,0.1l11.7,114.9l-99.9,58.1l97.8,21.1c-9.6,8.4-20.2,19-31.3,30.1l0,0L0,450.4v19.4h32.2l222.6-219.4
		c10.3-10.3,18.9-19.5,25.8-27.8l18.9,87.8l58.1-99.9l114.9,11.7l-77-86.1l46.7-105.7L336.5,77.2L250.4,0.1L250.4,0.1z"/>
	<path class="st5" d="M8.3,33.9c33.8,27.7,35.2,42.8,30.8,87.8c19-53.7,28-67.3,64.5-82C64.4,49.1,47.6,51,8.3,33.9L8.3,33.9z"/>
	<path class="st5" d="M63.1,136.3c25,27,27,43.7,24.2,72.1c14.8-34.4,22.1-45.7,55.6-64.3C108.4,155.2,97.4,154.3,63.1,136.3z"/>
	<path class="st5" d="M388.7,231.3C397.9,283,384,305,355.8,338c43.3-37,57.9-44.3,96.8-38.8C414.1,287.8,405.2,278.6,388.7,231.3
		L388.7,231.3z"/>
	<path class="st5" d="M333,304.1c-18.7,68.8-45.3,83.9-107.6,70.1c54.1,20.1,56.3,21.1,53.5,85.3c24.8-55.4,46.5-52.2,95.1-37.2
		C332.2,390.4,328.3,373.3,333,304.1L333,304.1z"/>
	<path class="st5" d="M442.3,360.1c-15.3,18-22.9,17.5-43.8,9.3c22.8,18.4,17.6,34,10.8,59.4c16-19.1,23.5-25.2,50.3-12.7
		C436.8,394.8,432.6,386.3,442.3,360.1L442.3,360.1z"/>
</g>
</svg>
