<?xml version="1.0" encoding="utf-8"?>
<!-- Generator: Adobe Illustrator 19.1.1, SVG Export Plug-In . SVG Version: 6.00 Build 0)  -->
<svg version="1.1" id="Layer_1" xmlns="http://www.w3.org/2000/svg" xmlns:xlink="http://www.w3.org/1999/xlink" x="0px" y="0px"
	 viewBox="0 0 475.3 419.8" style="enable-background:new 0 0 475.3 419.8;" xml:space="preserve">
<style type="text/css">
	.st0{fill:#ED1C24;}
	.st1{fill:#FFF200;}
	.st2{fill:#603913;}
	.st3{fill:#939598;}
	.st4{fill:#27AAE1;}
	.st5{fill:#FFFFFF;}
	.st6{fill:#00A651;}
	.st7{fill:#EE2A7B;}
	.st8{fill:#1C75BC;}
	.st9{fill:none;}
</style>
<g>
	<path class="st8" d="M319.1,135.7c-34.7,82.2-25.7,191.1,25.2,284.1h78C346.7,366,302.2,229.4,319.1,135.7z"/>
	<path class="st8" d="M297.3,109.5c-76.8,49.1-114.6,208.7-109.8,310.3h78.4C224.7,339.1,242.7,167.1,297.3,109.5z"/>
	<path class="st8" d="M24.7,419.8H116c1-134,71.1-282,148.9-324C175.3,106.5,47.3,284.5,24.7,419.8z"/>
	<path class="st8" d="M182.7,72.7c-5.7,3.2-11.6,7.1-17.4,11.8c-10.5,9.9-20.6,20.3-30.6,30.7c-6.4,6.7-12.8,13.3-19.1,19.9
		C59.9,203.4,53.9,238.5,0,271.3v-89.9c23.3-1.1,42.5-9.6,61-22.8c20.5-14.6,39.7-35,60.2-56.5c2.6-2.7,5.2-5.4,7.9-8.2
		C135.5,90.9,157.6,80.6,182.7,72.7z"/>
	<path class="st5" d="M463.9,160.4c-1.9-61.9-38.6-74-56.6,10.6c-5.6-36.1-13.5-62.6-21.9-79.5l-12-17.3
		c-13.7-12.7-27.1-2.1-34,31.6c-8.8-49.4-62.2-68.2-66.8-18.9c-0.3-0.6-0.6-1.2-0.9-1.7c-5.7-10.3-15-18-26.7-21.9
		c-17-5.8-39.1-3.7-62.3,9.4c-25,7.9-47.1,18.3-53.6,21.3c6.9-7.1,13.9-14.2,21.3-21.1C196.1,20.9,250,0.5,300.5,0
		C411.7-1.1,506.9,94.1,463.9,160.4z"/>
	<path class="st8" d="M475.3,352.3v20.6c-48.6-19.6-89.8-72.8-110.3-133.8c-18.2-54.1-19.7-115.4,8.4-164.9l12,17.3
		c-20.5,42.6-18.7,94.3-2.8,141.7C400.6,286.6,436.9,333.1,475.3,352.3z"/>
	<path class="st9" d="M129.1,94c-1.2,0.6-1.9,0.9-1.9,0.9"/>
</g>
</svg>
