<?xml version="1.0" encoding="utf-8"?>
<!-- Generator: Adobe Illustrator 19.1.1, SVG Export Plug-In . SVG Version: 6.00 Build 0)  -->
<svg version="1.1" id="Layer_1" xmlns="http://www.w3.org/2000/svg" xmlns:xlink="http://www.w3.org/1999/xlink" x="0px" y="0px"
	 viewBox="0 0 470.5 470.5" style="enable-background:new 0 0 470.5 470.5;" xml:space="preserve">
<style type="text/css">
	.st0{fill:#ED1C24;}
	.st1{fill:#FFF200;}
	.st2{fill:#603913;}
	.st3{fill:#939598;}
	.st4{fill:#27AAE1;}
	.st5{fill:#FFFFFF;}
	.st6{fill:#00A651;}
	.st7{fill:#EE2A7B;}
	.st8{fill:#1C75BC;}
	.st9{fill:none;}
</style>
<path class="st1" d="M66.2,0L55.5,10.7l0,0L83,344.3L0,437.3l33.3,33.3l90.2-80.6l336.2,24.9c0.1,0.1,0.1,0.1,0.2,0.2l0.2-0.2h0v0
	l10.6-10.6c-1.7-1.7-3.1-3.4-4.7-5.2c-21.3-25.5-25.4-63.2-35.5-109.1c-8.3-38-21.2-81-53.1-125l-38.1,50.8c0,0,0,0,0,0
	c29,36.1,46,67.8,59.7,96.3c15,31.2,26.1,59,44.5,83.7l-301.5-22.4l172.2-153.9l64.4-86L337,92l-85.9,64.3L99.4,326L74.8,27.2
	c24.7,18.3,52.4,29.4,83.7,44.4c28.5,13.7,60.2,30.7,96.3,59.7l50.8-38.1c-44-31.9-87-44.7-125-53.1C134.6,30.1,96.9,26,71.4,4.7
	C69.7,3.1,67.9,1.7,66.2,0z M383.2,0.3c-3.4,0-6.9,0.4-10.3,1c-4.6,0.8-9,1.8-12.8,3.1c-3.8,1.3-6.8,2.3-9.7,4.6
	c-1.9,1.5-2.9,3.8-2.7,6.2l5,62.3c0.1,1.7,0.9,3.3,2.1,4.5l33.7,33.6c1.2,1.2,2.8,2,4.5,2.1l62.3,5c2.4,0.2,4.7-0.8,6.2-2.7
	c2.3-2.9,3.4-5.9,4.6-9.7c1.3-3.8,2.3-8.3,3.1-12.8c0.8-4.6,1.2-9.2,0.9-13.6c-0.3-4.4-1-9-4.8-12.8L399.4,5.2
	c-3.8-3.8-8.4-4.5-12.8-4.8C385.5,0.3,384.4,0.3,383.2,0.3L383.2,0.3z M383.4,14.7c0.8,0,1.6,0,2.3,0.1c2.4,0.2,3.7,0.9,3.7,0.8
	L455,81.2c-0.1,0,0.6,1.3,0.8,3.7c0.2,2.7-0.1,6.5-0.7,10.3c-0.6,3.8-1.6,7.6-2.6,10.7c-0.4,1.3-0.5,1.3-0.9,2.2l-54.8-4.4
	l-29.9-29.9l-4.4-54.8c0.9-0.4,0.9-0.5,2.2-0.9c3-1,6.9-2,10.7-2.6C378.2,15,381,14.7,383.4,14.7L383.4,14.7z M335.4,135.1
	l-18.9,31.6L112,371.2l-8.8-0.7l-1.2-14.6l201.9-201.9L335.4,135.1L335.4,135.1z"/>
</svg>
