<?xml version="1.0" encoding="utf-8"?>
<!-- Generator: Adobe Illustrator 18.0.0, SVG Export Plug-In . SVG Version: 6.00 Build 0)  -->
<!DOCTYPE svg PUBLIC "-//W3C//DTD SVG 1.1//EN" "http://www.w3.org/Graphics/SVG/1.1/DTD/svg11.dtd">
<svg version="1.1" id="Capa_1" xmlns="http://www.w3.org/2000/svg" xmlns:xlink="http://www.w3.org/1999/xlink" x="0px" y="0px"
	 viewBox="-189.9 -85 876 876" enable-background="new -189.9 -85 876 876" xml:space="preserve">
<path d="M554,261.2c-1-17.5-21.8-31.1-63.3-41.5c1.4-3.1,2.2-6.2,2.2-9.5v-71.4h-0.2C489,79.4,245.4,77.6,217.5,77.6
	s-271.6,1.8-275.2,61.2h-0.2v1.3l0,0l0,0v70.1c0.1,19.4,25.1,34.5,62.3,45.8c-0.5,1.7-0.8,3.4-0.9,5.2H3.3v1.3l0,0l0,0v69.9
	c-40.1,10.3-60.1,23.8-61.1,40.9h-0.1v1.3l0,0l0,0v70.1c0,13.5,12.2,24.9,32.1,34.5c-0.7,2.1-1.2,4.2-1.4,6.3h-0.2v1.3l0,0l0,0V557
	c0.1,33.9,76.5,55,161.3,64.8c0.6,0.1,1.2,0.4,1.9,0.4c0.2,0,0.4-0.1,0.6-0.1c16.4,1.8,33,3.3,49.4,4.3c0.3,0,0.7,0.2,1,0.2
	c0.2,0,0.3-0.1,0.5-0.1c20.9,1.3,41.4,1.9,60.7,1.9s39.8-0.6,60.7-1.9c0.2,0,0.3,0.1,0.5,0.1c0.4,0,0.7-0.2,1-0.2
	c16.5-1,33.1-2.5,49.4-4.3c0.2,0,0.4,0.1,0.6,0.1c0.7,0,1.2-0.3,1.9-0.4C447,612,523.4,590.9,523.5,557v-71.4h-0.2
	c-0.7-12.5-11.4-22.9-32.4-31.7c1.3-2.9,2-6,2-9.2v-66.7c36.6-11.3,61.1-26.3,61.2-45.5v-71.4H554z M13.5,237.5v-49.3
	c9.5,2.6,19.8,4.9,30.6,7v49.8c-1.3-0.3-2.5-0.5-3.8-0.8c-5.4-1.2-10.7-2.4-15.8-3.8C20.7,239.5,17,238.5,13.5,237.5z M470.1,215.2
	l-0.3-0.1l-3.7,2.9c-5.4,4.2-13.7,8.4-24.3,12.5V182c12.1-4.2,22.5-8.9,30.6-14v42.2C472.5,211.7,471.7,213.4,470.1,215.2z
	 M198.9,444.7c2.8,0.1,5.6,0.1,8.4,0.1v51c-2,0-4,0-5.9-0.1c-0.9,0-1.8,0-2.7-0.1c-4.7-0.1-9.3-0.2-13.9-0.3c-0.6,0-1.1,0-1.7-0.1
	c-5.6-0.2-11.1-0.4-16.6-0.7v-50.9c10.2,0.5,20.5,0.8,30.8,1C197.8,444.6,198.3,444.7,198.9,444.7z M237.7,444.6
	c10.3-0.2,20.5-0.5,30.8-1v50.9c-2.2,0.1-4.4,0.2-6.6,0.3c-6.1,0.3-12.3,0.5-18.6,0.6c-1.5,0-3,0.1-4.5,0.1
	c-3.6,0.1-7.4,0.1-11.1,0.1v-50.9c2.8,0,5.6-0.1,8.4-0.1C236.6,444.7,237.2,444.6,237.7,444.6z M295.7,492.9
	c-2.2,0.2-4.5,0.3-6.8,0.5v-50.9c10.3-0.7,20.6-1.5,30.6-2.5v50.7c-6.3,0.7-12.8,1.3-19.4,1.8C298.6,492.6,297.1,492.7,295.7,492.9z
	 M339.9,437.8c10.5-1.3,20.7-2.7,30.6-4.3v50.1c-9.6,1.7-19.8,3.3-30.6,4.7V437.8z M120.8,491.2c-1-0.1-2.1-0.2-3.1-0.3
	c-0.7-0.1-1.5-0.2-2.2-0.2V440c10,1,20.3,1.8,30.6,2.5v50.8C137.5,492.7,129,492,120.8,491.2z M95.1,437.8v50.4
	c-10.8-1.4-21-3-30.6-4.7v-50.1C74.3,435.1,84.6,436.6,95.1,437.8z M390.9,479.7v-49.8c10.8-2.1,21.1-4.5,30.6-7v49.3
	C412.4,474.7,402.2,477.3,390.9,479.7z M198.9,210.1c2.8,0.1,5.6,0.1,8.4,0.1v50.9c-13.7-0.1-27.4-0.5-40.8-1.2v-50.9
	c10.2,0.5,20.5,0.8,30.8,1C197.8,210,198.3,210.1,198.9,210.1z M237.7,210c10.3-0.2,20.5-0.5,30.8-1v50.9c-1.7,0.1-3.4,0.2-5.1,0.3
	c-0.1,0-0.3,0-0.4,0c-6.8,0.3-13.8,0.5-20.9,0.7c-1.1,0-2.2,0-3.3,0.1c-3.6,0.1-7.3,0.1-11,0.1v-50.9c2.8,0,5.6-0.1,8.4-0.1
	C236.6,210.1,237.2,210,237.7,210z M298.9,332.4c10.3-0.2,20.5-0.5,30.8-1v50.9c-13.4,0.7-27,1-40.8,1.2v-50.9
	c2.8,0,5.6-0.1,8.4-0.1C297.8,332.5,298.4,332.4,298.9,332.4z M200.6,380.7c-6.5-0.5-12.9-1.1-19.1-1.7c-1.3-0.1-2.7-0.3-4-0.4
	c-0.3,0-0.5-0.1-0.8-0.1v-50.7c10,1,20.3,1.8,30.6,2.5v50.8c-0.8-0.1-1.7-0.1-2.5-0.2C203.4,380.9,202,380.8,200.6,380.7z
	 M137.3,373.4c-4-0.6-7.8-1.3-11.7-2v-50c9.9,1.6,20.1,3,30.6,4.3v50.4c-6.2-0.8-12.4-1.7-18.2-2.6
	C137.8,373.4,137.6,373.4,137.3,373.4z M260.1,332.5c2.8,0.1,5.6,0.1,8.4,0.1v50.9c-5-0.1-10-0.1-14.8-0.2c-0.7,0-1.5,0-2.3,0
	c-7.7-0.2-15.2-0.5-22.5-0.8c-0.4,0-0.8,0-1.2-0.1v-50.9c10.2,0.5,20.5,0.8,30.8,1C259,332.4,259.5,332.5,260.1,332.5z M362.7,380.2
	c-0.4,0-0.7,0.1-1.1,0.1c-3.8,0.3-7.7,0.5-11.6,0.8v-50.8c10.3-0.7,20.6-1.5,30.6-2.5v50.6C374.7,379,368.8,379.7,362.7,380.2z
	 M115.5,256v-50.6c10,1,20.3,1.8,30.6,2.5v50.8C135.7,257.9,125.4,257.1,115.5,256z M319.5,256c-9.9,1-20.1,1.9-30.6,2.7v-50.8
	c10.3-0.7,20.6-1.5,30.6-2.5V256z M339.9,203.2c10.5-1.3,20.7-2.7,30.6-4.3v50c-9.7,1.7-19.8,3.3-30.6,4.7V203.2z M390.9,245v-49.7
	c10.8-2.1,21.1-4.5,30.6-7v49.2C412.3,240.1,402,242.6,390.9,245z M95.1,203.2v50.4c-2-0.3-4.1-0.5-6.1-0.8
	c-1.3-0.2-2.5-0.4-3.8-0.6c-5.9-0.8-11.7-1.8-17.3-2.7c-1.1-0.2-2.2-0.4-3.3-0.6v-50.1C74.3,200.5,84.6,202,95.1,203.2z
	 M105.3,317.7v49.7c-11.3-2.4-21.5-5-30.6-7.7v-49.1C84.2,313.2,94.4,315.6,105.3,317.7z M430.7,371.6c-4.5,0.8-9,1.5-13.6,2.2
	c-2.7,0.4-5.4,0.8-8.1,1.2c-2.6,0.4-5.3,0.7-7.9,1v-50.4c10.5-1.3,20.7-2.7,30.6-4.3v50.1C431.4,371.5,431,371.5,430.7,371.6z
	 M54.3,304.4v48.5c-16-6.2-26.4-12.5-29.7-18.1l-0.7-1.1c-0.1-0.3-0.2-0.7-0.2-1v-42.2C31.8,295.5,42.1,300.2,54.3,304.4z
	 M44.1,429.9v49.8c-9.4-2-18-4.1-25.9-6.2c-1.2-0.3-2.5-0.7-3.7-1c-0.3-0.1-0.7-0.2-1-0.3v-49.3C23,425.4,33.2,427.8,44.1,429.9z
	 M74.7,542.1v49.8c-11.3-2.4-21.5-4.9-30.6-7.6V535C53.6,537.6,63.8,540,74.7,542.1z M95.1,545.7c9.9,1.6,20.1,3,30.6,4.3v50.4
	c-10.8-1.4-21-3-30.6-4.7V545.7z M146.1,552.2c10,1,20.3,1.8,30.6,2.5v50.9c-10.6-0.7-20.8-1.7-30.6-2.7V552.2z M197.1,555.9
	c10.2,0.5,20.5,0.8,30.8,1c0.5,0,1.1,0,1.6,0c2.8,0.1,5.6,0.1,8.4,0.1v51c-14.1-0.1-27.7-0.5-40.8-1.2L197.1,555.9L197.1,555.9z
	 M258.3,557c2.8,0,5.6-0.1,8.4-0.1c0.5,0,1.1,0,1.6,0c10.3-0.2,20.5-0.5,30.8-1v50.9c-13.1,0.6-26.7,1.1-40.8,1.2V557z M319.5,554.7
	c10.3-0.7,20.6-1.5,30.6-2.5v50.7c-9.8,1-20,1.9-30.6,2.7V554.7z M370.5,550c10.5-1.3,20.7-2.7,30.6-4.3v50.1
	c-9.6,1.7-19.8,3.3-30.6,4.7V550z M421.5,542.1c10.8-2.1,21.1-4.5,30.6-7v49.3c-9.1,2.6-19.3,5.2-30.6,7.6V542.1z M471.4,448.1
	l-3.5,3c-5.4,4.7-14.3,9.5-26,14.1v-48.6c12.1-4.2,22.5-8.9,30.6-14v42.2C472.5,445.8,472.1,446.9,471.4,448.1z M478.2,361.2
	c-5.1,1.4-10.5,2.7-15.9,4c-2.5,0.6-5.1,1.2-7.8,1.8c-0.8,0.2-1.6,0.3-2.4,0.5v-49.8c10.8-2.1,21.1-4.5,30.6-7v49.3
	C481.2,360.3,479.7,360.7,478.2,361.2z M-37.5,210.2V168c8.1,5.1,18.5,9.8,30.6,14v48.8C-26.8,223.4-37.5,215.9-37.5,210.2z
	 M-37.5,444.8v-42.2c8.1,5.1,18.5,9.8,30.6,14v48.6l-5.8-2.3l-0.1,0.1C-28.9,456.5-37.5,449.9-37.5,444.8z M-6.9,557v-42.2
	c8.1,5.1,18.5,9.8,30.6,14v48.8C3.8,570.2-6.9,562.7-6.9,557z M472.5,577.6v-48.8c12.1-4.2,22.5-8.9,30.6-14V557
	C503.1,562.7,492.3,570.2,472.5,577.6z M503.1,353.2v-48.8c12.1-4.2,22.5-8.9,30.6-14v42.2C533.7,338.3,522.9,345.8,503.1,353.2z"/>
<line fill="none" stroke="#FFFFFF" stroke-width="65" stroke-miterlimit="10" x1="549.6" y1="51.5" x2="-53.5" y2="654.6"/>
<line fill="none" stroke="#000000" stroke-width="45" stroke-miterlimit="10" x1="549.6" y1="51.5" x2="-53.5" y2="654.6"/>
<g>
	<path d="M248.1-40c53.1,0,104.5,10.4,153,30.9C447.8,10.7,489.9,39,526,75.1c36.1,36.1,64.4,78.1,84.2,124.9
		c20.5,48.4,30.9,99.9,30.9,153s-10.4,104.5-30.9,153c-19.8,46.8-48.1,88.8-84.2,124.9c-36.1,36.1-78.1,64.4-124.9,84.2
		c-48.4,20.5-99.9,30.9-153,30.9s-104.5-10.4-153-30.9C48.3,695.4,6.3,667-29.8,630.9c-36.1-36.1-64.4-78.1-84.2-124.9
		c-20.5-48.4-30.9-99.9-30.9-153s10.4-104.5,30.9-153c19.8-46.8,48.1-88.8,84.2-124.9C6.3,39,48.3,10.7,95.1-9.1
		C143.5-29.6,195-40,248.1-40 M248.1-85c-241.9,0-438,196.1-438,438s196.1,438,438,438s438-196.1,438-438S490-85,248.1-85L248.1-85z
		"/>
</g>
</svg>
